<svg width="184" height="261" viewBox="0 0 184 261" fill="none" xmlns="http://www.w3.org/2000/svg">
<g clip-path="url(#clip0_464_123)">
<path d="M87.6801 11.0252C84.6008 10.4058 80.7726 10.6649 78.4333 11.6997C76.28 12.6755 73.5746 15.4403 72.0637 18.2391C71.224 19.8924 61.8241 47.8437 39.0171 116.825L7.18855 213.119L7.35637 215.871C7.44766 217.35 7.84406 219.413 8.22818 220.386C9.04862 222.55 11.7927 225.433 14.372 226.932C15.6616 227.682 28.9225 232.204 58.2133 241.923C103.311 256.888 102.325 256.601 106.721 256.007C108.956 255.662 112.206 253.762 114.036 251.633L115.571 249.888L130.036 206.674C142.658 168.885 144.526 163.508 145.013 163.669C145.874 163.955 154.679 137.296 153.963 136.696C153.562 136.402 153.726 135.531 154.857 132.123C156.012 128.642 156.353 127.991 156.803 128.14C157.29 128.301 157.689 127.347 159.53 121.8C161.359 116.29 161.62 115.25 161.134 115.088C160.684 114.939 161.907 110.877 170.759 83.9515C180.295 54.8379 180.895 52.904 180.798 50.94C180.614 45.6065 177.721 41.6683 172.032 39.0156C168.43 37.3377 91.6825 11.8703 87.6801 11.0252ZM144.194 151.726L115.321 238.738L64.5678 221.896L13.8147 205.055L42.6878 118.043L71.5609 31.0318L122.314 47.8733L173.067 64.7148L144.194 151.726Z" fill="#3E5E6D"/>
<path d="M74.6138 100.808L90.9535 105.701L71.8164 165.119L55.4767 160.226L74.6138 100.808Z" fill="#F8F2EE"/>
<path d="M72.0435 106.981L89.4737 112.199L72.0872 166.182L54.6569 160.964L72.0435 106.981Z" fill="white"/>
<path d="M127.562 175.886C127.202 175.905 126.517 175.946 126.037 175.973C125.559 176.001 124.733 176.049 124.203 176.08C123.674 176.112 122.827 176.161 122.324 176.189C121.82 176.217 120.977 176.265 120.453 176.297C119.929 176.328 119.086 176.377 118.582 176.405C117.071 176.491 115.869 176.561 114.841 176.621C114.305 176.652 113.485 176.7 113.016 176.727C112.548 176.754 111.627 176.808 110.97 176.843L109.775 176.91L109.574 177.046C109.079 177.381 108.394 177.559 107.394 177.615C105.792 177.704 104.744 177.362 104.62 176.71C104.558 176.391 104.678 176.053 104.941 175.801C105.256 175.504 105.757 175.296 106.506 175.155C106.895 175.084 108.087 175.039 108.445 175.086C109.171 175.179 109.617 175.34 109.887 175.605L109.977 175.692L111.068 175.693C111.669 175.692 112.55 175.694 113.024 175.694C113.5 175.694 114.318 175.695 114.843 175.696C115.987 175.696 117.324 175.698 118.565 175.698C119.065 175.697 119.898 175.698 120.412 175.7C120.928 175.701 121.759 175.702 122.259 175.701C122.759 175.7 123.603 175.701 124.134 175.702C124.665 175.703 125.483 175.704 125.953 175.704C126.424 175.704 127.128 175.705 127.521 175.702L128.233 175.701L128.223 175.775L128.213 175.848L127.562 175.886ZM109.276 176.198C108.387 175.783 106.52 175.829 105.504 176.293C105.401 176.34 105.313 176.391 105.311 176.405C105.307 176.435 105.597 176.568 105.779 176.62C106.797 176.903 108.372 176.795 109.251 176.384C109.335 176.344 109.405 176.301 109.407 176.287C109.409 176.273 109.35 176.234 109.276 176.198Z" fill="black"/>
<path d="M95.7182 110.526C95.6053 110.876 95.2223 111.236 94.3877 111.511C93.5696 111.781 92.4301 111.927 91.0321 111.931C88.2428 111.938 84.5429 111.375 80.6031 110.229C76.6632 109.082 73.2661 107.58 70.9595 106.091C69.8034 105.344 68.9459 104.617 68.4271 103.958C67.8979 103.286 67.7931 102.784 67.9059 102.434C68.0187 102.084 68.4017 101.724 69.2364 101.449C70.0545 101.18 71.194 101.033 72.592 101.029C75.3812 101.023 79.0811 101.586 83.021 102.732C86.9608 103.878 90.3579 105.38 92.6645 106.87C93.8207 107.616 94.6782 108.344 95.1969 109.002C95.7262 109.674 95.831 110.176 95.7182 110.526Z" stroke="#E9502D"/>
<path d="M95.9096 109.924C95.7968 110.273 95.4137 110.634 94.5791 110.909C93.761 111.178 92.6215 111.325 91.2235 111.328C88.4342 111.335 84.7343 110.772 80.7945 109.626C76.8546 108.48 73.4576 106.978 71.1509 105.488C69.9948 104.742 69.1373 104.014 68.6185 103.356C68.0893 102.684 67.9845 102.182 68.0973 101.832C68.2101 101.482 68.5932 101.122 69.4278 100.847C70.2459 100.577 71.3854 100.43 72.7834 100.427C75.5726 100.42 79.2725 100.983 83.2124 102.129C87.1523 103.276 90.5493 104.778 92.8559 106.267C94.0121 107.014 94.8696 107.741 95.3883 108.4C95.9176 109.072 96.0224 109.574 95.9096 109.924Z" stroke="#E9502D"/>
<path d="M95.4623 111.327C95.3659 111.626 95.0127 111.957 94.1795 112.205C93.37 112.446 92.2377 112.565 90.8455 112.545C88.0686 112.505 84.3757 111.912 80.4342 110.764C76.4928 109.617 73.084 108.142 70.76 106.698C69.595 105.973 68.7275 105.272 68.1989 104.641C67.6549 103.993 67.5575 103.53 67.654 103.231C67.7504 102.932 68.1036 102.601 68.9368 102.353C69.7463 102.113 70.8787 101.993 72.2708 102.013C75.0477 102.054 78.7406 102.647 82.6821 103.794C86.6236 104.942 90.0323 106.416 92.3563 107.861C93.5213 108.585 94.3888 109.287 94.9174 109.917C95.4615 110.566 95.5588 111.028 95.4623 111.327Z" stroke="#E9502D"/>
<path d="M94.7021 113.722C94.5892 114.072 94.2062 114.432 93.3716 114.707C92.5535 114.977 91.414 115.123 90.016 115.127C87.2267 115.134 83.5268 114.571 79.587 113.424C75.6471 112.278 72.25 110.776 69.9434 109.287C68.7873 108.54 67.9298 107.812 67.411 107.154C66.8818 106.482 66.7769 105.98 66.8898 105.63C67.0026 105.28 67.3856 104.92 68.2202 104.645C69.0383 104.375 70.1779 104.229 71.5759 104.225C74.3651 104.218 78.065 104.781 82.0049 105.928C85.9447 107.074 89.3418 108.576 91.6484 110.065C92.8046 110.812 93.6621 111.54 94.1808 112.198C94.7101 112.87 94.8149 113.372 94.7021 113.722Z" stroke="#E9502D"/>
<path d="M94.8674 113.193C94.7877 113.44 94.467 113.744 93.6329 113.964C92.8315 114.176 91.7061 114.269 90.3199 114.225C87.5551 114.137 83.8693 113.514 79.9263 112.365C75.9832 111.216 72.5627 109.77 70.2214 108.37C69.0474 107.668 68.1696 106.992 67.6309 106.389C67.0702 105.762 66.9835 105.34 67.0631 105.093C67.1428 104.846 67.4634 104.543 68.2976 104.322C69.099 104.11 70.2244 104.018 71.6106 104.062C74.3754 104.149 78.0612 104.773 82.0042 105.922C85.9473 107.07 89.3677 108.517 91.7091 109.917C92.8831 110.619 93.7609 111.295 94.2996 111.897C94.8603 112.524 94.947 112.946 94.8674 113.193Z" stroke="#E9502D"/>
<path d="M94.3595 114.791C94.2799 115.038 93.9592 115.341 93.1251 115.562C92.3237 115.774 91.1983 115.866 89.812 115.822C87.0473 115.735 83.3615 115.111 79.4185 113.963C75.4754 112.814 72.0549 111.367 69.7135 109.967C68.5396 109.265 67.6618 108.59 67.1231 107.987C66.5624 107.36 66.4757 106.938 66.5553 106.691C66.635 106.444 66.9556 106.141 67.7897 105.92C68.5912 105.708 69.7166 105.616 71.1028 105.659C73.8676 105.747 77.5534 106.371 81.4964 107.519C85.4395 108.668 88.8599 110.115 91.2013 111.515C92.3753 112.217 93.2531 112.892 93.7918 113.495C94.3525 114.122 94.4392 114.544 94.3595 114.791Z" stroke="#E9502D"/>
<path d="M93.9665 116.029C93.8868 116.276 93.5662 116.579 92.7321 116.8C91.9306 117.012 90.8052 117.104 89.419 117.06C86.6542 116.973 82.9684 116.349 79.0254 115.2C75.0823 114.052 71.6619 112.605 69.3205 111.205C68.1465 110.503 67.2687 109.827 66.73 109.225C66.1693 108.598 66.0826 108.176 66.1622 107.929C66.2419 107.682 66.5626 107.378 67.3967 107.158C68.1981 106.946 69.3235 106.853 70.7098 106.897C73.4745 106.985 77.1603 107.608 81.1033 108.757C85.0464 109.906 88.4669 111.352 90.8082 112.752C91.9822 113.454 92.86 114.13 93.3987 114.733C93.9594 115.36 94.0461 115.782 93.9665 116.029Z" stroke="#E9502D"/>
<path d="M96.82 108.966C96.7403 109.213 96.4197 109.516 95.5856 109.737C94.7841 109.949 93.6588 110.041 92.2725 109.997C89.5078 109.91 85.8219 109.286 81.8789 108.137C77.9359 106.989 74.5154 105.542 72.174 104.142C71 103.44 70.1223 102.764 69.5835 102.162C69.0228 101.535 68.9361 101.113 69.0158 100.866C69.0954 100.619 69.4161 100.315 70.2502 100.095C71.0516 99.8826 72.177 99.7904 73.5633 99.8343C76.328 99.9217 80.0138 100.545 83.9569 101.694C87.8999 102.843 91.3204 104.289 93.6618 105.689C94.8358 106.391 95.7135 107.067 96.2522 107.67C96.8129 108.297 96.8997 108.719 96.82 108.966Z" stroke="#E9502D"/>
<path d="M95.9054 108.016C95.8258 108.263 95.5051 108.566 94.671 108.787C93.8696 108.999 92.7442 109.091 91.3579 109.047C88.5932 108.96 84.9074 108.336 80.9643 107.187C77.0213 106.039 73.6008 104.592 71.2594 103.192C70.0855 102.49 69.2077 101.814 68.669 101.212C68.1083 100.585 68.0216 100.163 68.1012 99.9155C68.1809 99.6685 68.5015 99.3652 69.3356 99.1445C70.1371 98.9324 71.2625 98.8402 72.6487 98.8841C75.4135 98.9715 79.0993 99.5952 83.0423 100.744C86.9854 101.893 90.4058 103.339 92.7472 104.739C93.9212 105.441 94.799 106.117 95.3377 106.72C95.8984 107.347 95.9851 107.769 95.9054 108.016Z" stroke="#E9502D"/>
<path d="M95.3078 111.808C95.2281 112.055 94.9075 112.358 94.0734 112.579C93.2719 112.791 92.1465 112.883 90.7603 112.84C87.9956 112.752 84.3097 112.128 80.3667 110.98C76.4237 109.831 73.0032 108.384 70.6618 106.984C69.4878 106.282 68.6101 105.607 68.0713 105.004C67.5106 104.377 67.4239 103.955 67.5036 103.708C67.5832 103.461 67.9039 103.158 68.738 102.937C69.5394 102.725 70.6648 102.633 72.0511 102.677C74.8158 102.764 78.5016 103.388 82.4447 104.536C86.3877 105.685 89.8082 107.132 92.1496 108.532C93.3235 109.234 94.2013 109.909 94.74 110.512C95.3007 111.139 95.3874 111.561 95.3078 111.808Z" stroke="#E9502D"/>
<path d="M95.6916 110.602C95.6119 110.849 95.2913 111.152 94.4572 111.373C93.6557 111.585 92.5303 111.677 91.1441 111.633C88.3793 111.546 84.6935 110.922 80.7505 109.773C76.8074 108.624 73.387 107.178 71.0456 105.778C69.8716 105.076 68.9938 104.4 68.4551 103.798C67.8944 103.17 67.8077 102.748 67.8873 102.501C67.967 102.254 68.2877 101.951 69.1218 101.73C69.9232 101.518 71.0486 101.426 72.4348 101.47C75.1996 101.557 78.8854 102.181 82.8284 103.33C86.7715 104.479 90.192 105.925 92.5333 107.325C93.7073 108.027 94.5851 108.703 95.1238 109.305C95.6845 109.933 95.7712 110.355 95.6916 110.602Z" stroke="#E9502D"/>
<path d="M95.6916 110.602C95.6119 110.849 95.2913 111.152 94.4572 111.373C93.6557 111.585 92.5303 111.677 91.1441 111.633C88.3793 111.546 84.6935 110.922 80.7505 109.773C76.8074 108.624 73.387 107.178 71.0456 105.778C69.8716 105.076 68.9938 104.4 68.4551 103.798C67.8944 103.17 67.8077 102.748 67.8873 102.501C67.967 102.254 68.2877 101.951 69.1218 101.73C69.9232 101.518 71.0486 101.426 72.4348 101.47C75.1996 101.557 78.8854 102.181 82.8284 103.33C86.7715 104.479 90.192 105.925 92.5333 107.325C93.7073 108.027 94.5851 108.703 95.1238 109.305C95.6845 109.933 95.7712 110.355 95.6916 110.602Z" stroke="#E9502D"/>
<path d="M90.5378 124.902C90.4581 125.149 90.1375 125.453 89.3033 125.673C88.5019 125.885 87.3765 125.978 85.9903 125.934C83.2255 125.846 79.5397 125.223 75.5967 124.074C71.6536 122.925 68.2331 121.479 65.8918 120.079C64.7178 119.377 63.84 118.701 63.3013 118.098C62.7406 117.471 62.6539 117.049 62.7335 116.802C62.8132 116.555 63.1339 116.252 63.968 116.031C64.7694 115.819 65.8948 115.727 67.281 115.771C70.0458 115.858 73.7316 116.482 77.6746 117.631C81.6177 118.779 85.0382 120.226 87.3795 121.626C88.5535 122.328 89.4313 123.004 89.97 123.606C90.5307 124.233 90.6174 124.655 90.5378 124.902Z" stroke="#E9502D"/>
<path d="M90.8771 127.662C90.7975 127.909 90.4768 128.212 89.6427 128.433C88.8413 128.645 87.7159 128.737 86.3296 128.694C83.5649 128.606 79.8791 127.982 75.936 126.834C71.993 125.685 68.5725 124.239 66.2311 122.838C65.0571 122.136 64.1794 121.461 63.6407 120.858C63.08 120.231 62.9932 119.809 63.0729 119.562C63.1526 119.315 63.4732 119.012 64.3073 118.791C65.1087 118.579 66.2341 118.487 67.6204 118.531C70.3851 118.618 74.0709 119.242 78.014 120.39C81.957 121.539 85.3775 122.986 87.7189 124.386C88.8929 125.088 89.7706 125.763 90.3094 126.366C90.8701 126.993 90.9568 127.415 90.8771 127.662Z" stroke="#E9502D"/>
<path d="M89.3654 130.504C89.2857 130.751 88.9651 131.055 88.131 131.275C87.3296 131.488 86.2042 131.58 84.8179 131.536C82.0532 131.448 78.3674 130.825 74.4243 129.676C70.4813 128.527 67.0608 127.081 64.7194 125.681C63.5454 124.979 62.6677 124.303 62.1289 123.7C61.5682 123.073 61.4815 122.651 61.5612 122.404C61.6408 122.157 61.9615 121.854 62.7956 121.633C63.597 121.421 64.7224 121.329 66.1087 121.373C68.8734 121.46 72.5592 122.084 76.5023 123.233C80.4453 124.381 83.8658 125.828 86.2072 127.228C87.3812 127.93 88.2589 128.606 88.7976 129.208C89.3583 129.835 89.4451 130.257 89.3654 130.504Z" stroke="#E9502D"/>
<path d="M87.0217 141.707C86.942 141.954 86.6213 142.257 85.7872 142.478C84.9858 142.69 83.8604 142.782 82.4742 142.738C79.7094 142.651 76.0236 142.027 72.0806 140.878C68.1375 139.729 64.717 138.283 62.3757 136.883C61.2017 136.181 60.3239 135.505 59.7852 134.903C59.2245 134.275 59.1378 133.853 59.2174 133.606C59.2971 133.359 59.6177 133.056 60.4519 132.835C61.2533 132.623 62.3787 132.531 63.7649 132.575C66.5297 132.662 70.2155 133.286 74.1585 134.435C78.1016 135.584 81.522 137.03 83.8634 138.43C85.0374 139.132 85.9152 139.808 86.4539 140.41C87.0146 141.037 87.1013 141.46 87.0217 141.707Z" stroke="#E9502D"/>
<path d="M84.5954 143.598C84.5157 143.845 84.1951 144.148 83.361 144.369C82.5595 144.581 81.4341 144.673 80.0479 144.63C77.2832 144.542 73.5973 143.918 69.6543 142.77C65.7112 141.621 62.2908 140.175 59.9494 138.774C58.7754 138.072 57.8976 137.397 57.3589 136.794C56.7982 136.167 56.7115 135.745 56.7912 135.498C56.8708 135.251 57.1915 134.948 58.0256 134.727C58.827 134.515 59.9524 134.423 61.3387 134.467C64.1034 134.554 67.7892 135.178 71.7323 136.326C75.6753 137.475 79.0958 138.922 81.4372 140.322C82.6111 141.024 83.4889 141.7 84.0276 142.302C84.5883 142.929 84.675 143.351 84.5954 143.598Z" stroke="#E9502D"/>
<path d="M84.2121 144.805C84.1324 145.052 83.8118 145.355 82.9777 145.576C82.1762 145.788 81.0508 145.88 79.6646 145.837C76.8998 145.749 73.214 145.125 69.271 143.977C65.3279 142.828 61.9075 141.382 59.5661 139.981C58.3921 139.279 57.5143 138.604 56.9756 138.001C56.4149 137.374 56.3282 136.952 56.4079 136.705C56.4875 136.458 56.8082 136.155 57.6423 135.934C58.4437 135.722 59.5691 135.63 60.9554 135.674C63.7201 135.761 67.4059 136.385 71.349 137.533C75.292 138.682 78.7125 140.129 81.0539 141.529C82.2278 142.231 83.1056 142.907 83.6443 143.509C84.205 144.136 84.2917 144.558 84.2121 144.805Z" stroke="#E9502D"/>
<path d="M84.2121 144.805C84.1324 145.052 83.8118 145.355 82.9777 145.576C82.1762 145.788 81.0508 145.88 79.6646 145.837C76.8998 145.749 73.214 145.125 69.271 143.977C65.3279 142.828 61.9075 141.382 59.5661 139.981C58.3921 139.279 57.5143 138.604 56.9756 138.001C56.4149 137.374 56.3282 136.952 56.4079 136.705C56.4875 136.458 56.8082 136.155 57.6423 135.934C58.4437 135.722 59.5691 135.63 60.9554 135.674C63.7201 135.761 67.4059 136.385 71.349 137.533C75.292 138.682 78.7125 140.129 81.0539 141.529C82.2278 142.231 83.1056 142.907 83.6443 143.509C84.205 144.136 84.2917 144.558 84.2121 144.805Z" stroke="#E9502D"/>
<path d="M84.3595 148.167C84.2799 148.414 83.9592 148.718 83.1251 148.939C82.3237 149.151 81.1983 149.243 79.812 149.199C77.0473 149.112 73.3615 148.488 69.4185 147.339C65.4754 146.19 62.0549 144.744 59.7135 143.344C58.5396 142.642 57.6618 141.966 57.1231 141.363C56.5624 140.736 56.4757 140.314 56.5553 140.067C56.635 139.82 56.9556 139.517 57.7897 139.296C58.5912 139.084 59.7166 138.992 61.1028 139.036C63.8676 139.123 67.5534 139.747 71.4964 140.896C75.4395 142.044 78.8599 143.491 81.2013 144.891C82.3753 145.593 83.2531 146.269 83.7918 146.871C84.3525 147.498 84.4392 147.92 84.3595 148.167Z" stroke="#E9502D"/>
<path d="M81.7199 152.645C81.6402 152.892 81.3196 153.195 80.4855 153.416C79.684 153.628 78.5587 153.72 77.1724 153.676C74.4077 153.589 70.7218 152.965 66.7788 151.817C62.8358 150.668 59.4153 149.221 57.0739 147.821C55.8999 147.119 55.0222 146.444 54.4834 145.841C53.9227 145.214 53.836 144.792 53.9157 144.545C53.9953 144.298 54.316 143.995 55.1501 143.774C55.9515 143.562 57.0769 143.47 58.4632 143.513C61.2279 143.601 64.9137 144.225 68.8568 145.373C72.7998 146.522 76.2203 147.969 78.5617 149.369C79.7357 150.071 80.6134 150.746 81.1521 151.349C81.7128 151.976 81.7996 152.398 81.7199 152.645Z" stroke="#E9502D"/>
<path d="M80.7614 155.66C80.6817 155.907 80.3611 156.21 79.527 156.431C78.7255 156.643 77.6002 156.735 76.2139 156.692C73.4492 156.604 69.7633 155.98 65.8203 154.832C61.8773 153.683 58.4568 152.237 56.1154 150.836C54.9414 150.134 54.0637 149.459 53.5249 148.856C52.9642 148.229 52.8775 147.807 52.9572 147.56C53.0368 147.313 53.3575 147.01 54.1916 146.789C54.993 146.577 56.1184 146.485 57.5047 146.529C60.2694 146.616 63.9552 147.24 67.8983 148.388C71.8413 149.537 75.2618 150.984 77.6032 152.384C78.7772 153.086 79.6549 153.762 80.1936 154.364C80.7543 154.991 80.8411 155.413 80.7614 155.66Z" stroke="#E9502D"/>
<path d="M80.9089 159.023C80.8292 159.27 80.5086 159.574 79.6744 159.794C78.873 160.007 77.7476 160.099 76.3614 160.055C73.5966 159.967 69.9108 159.344 65.9678 158.195C62.0247 157.046 58.6042 155.6 56.2629 154.2C55.0889 153.498 54.2111 152.822 53.6724 152.219C53.1117 151.592 53.025 151.17 53.1046 150.923C53.1843 150.676 53.5049 150.373 54.3391 150.152C55.1405 149.94 56.2659 149.848 57.6521 149.892C60.4169 149.979 64.1027 150.603 68.0457 151.752C71.9888 152.9 75.4093 154.347 77.7506 155.747C78.9246 156.449 79.8024 157.125 80.3411 157.727C80.9018 158.354 80.9885 158.776 80.9089 159.023Z" stroke="#E9502D"/>
<path d="M94.5636 112.237C94.484 112.484 94.1633 112.788 93.3292 113.008C92.5278 113.22 91.4024 113.313 90.0161 113.269C87.2514 113.181 83.5656 112.558 79.6226 111.409C75.6795 110.26 72.259 108.814 69.9176 107.414C68.7437 106.712 67.8659 106.036 67.3272 105.433C66.7665 104.806 66.6798 104.384 66.7594 104.137C66.8391 103.89 67.1597 103.587 67.9938 103.366C68.7953 103.154 69.9207 103.062 71.3069 103.106C74.0717 103.193 77.7575 103.817 81.7005 104.966C85.6436 106.114 89.064 107.561 91.4054 108.961C92.5794 109.663 93.4572 110.339 93.9959 110.941C94.5566 111.568 94.6433 111.99 94.5636 112.237Z" stroke="#E9502D"/>
<path d="M88.4289 131.537C88.3492 131.784 88.0286 132.087 87.1945 132.308C86.393 132.52 85.2676 132.612 83.8814 132.569C81.1166 132.481 77.4308 131.857 73.4878 130.709C69.5447 129.56 66.1243 128.114 63.7829 126.713C62.6089 126.011 61.7311 125.336 61.1924 124.733C60.6317 124.106 60.545 123.684 60.6247 123.437C60.7043 123.19 61.025 122.887 61.8591 122.666C62.6605 122.454 63.7859 122.362 65.1722 122.406C67.9369 122.493 71.6227 123.117 75.5657 124.265C79.5088 125.414 82.9293 126.861 85.2707 128.261C86.4446 128.963 87.3224 129.638 87.8611 130.241C88.4218 130.868 88.5085 131.29 88.4289 131.537Z" stroke="#E9502D"/>
<path d="M78.6305 164.277C78.5509 164.524 78.2302 164.828 77.3961 165.048C76.5947 165.26 75.4693 165.353 74.083 165.309C71.3183 165.221 67.6325 164.598 63.6894 163.449C59.7464 162.3 56.3259 160.854 53.9845 159.454C52.8106 158.752 51.9328 158.076 51.3941 157.473C50.8334 156.846 50.7467 156.424 50.8263 156.177C50.906 155.93 51.2266 155.627 52.0607 155.406C52.8622 155.194 53.9876 155.102 55.3738 155.146C58.1385 155.233 61.8244 155.857 65.7674 157.006C69.7104 158.154 73.1309 159.601 75.4723 161.001C76.6463 161.703 77.524 162.379 78.0628 162.981C78.6235 163.608 78.7102 164.03 78.6305 164.277Z" stroke="#E9502D"/>
<path d="M78.8219 163.675C78.7423 163.922 78.4216 164.225 77.5875 164.446C76.7861 164.658 75.6607 164.75 74.2744 164.706C71.5097 164.619 67.8239 163.995 63.8809 162.846C59.9378 161.698 56.5173 160.251 54.1759 158.851C53.002 158.149 52.1242 157.473 51.5855 156.871C51.0248 156.244 50.9381 155.822 51.0177 155.575C51.0974 155.328 51.418 155.024 52.2521 154.804C53.0536 154.592 54.179 154.499 55.5652 154.543C58.33 154.631 62.0158 155.254 65.9588 156.403C69.9019 157.552 73.3223 158.998 75.6637 160.398C76.8377 161.1 77.7155 161.776 78.2542 162.379C78.8149 163.006 78.9016 163.428 78.8219 163.675Z" stroke="#E9502D"/>
<path d="M77.716 163.328C77.6363 163.575 77.3157 163.878 76.4816 164.099C75.6801 164.311 74.5548 164.403 73.1685 164.36C70.4038 164.272 66.7179 163.648 62.7749 162.5C58.8319 161.351 55.4114 159.905 53.07 158.504C51.896 157.802 51.0183 157.127 50.4795 156.524C49.9188 155.897 49.8321 155.475 49.9118 155.228C49.9914 154.981 50.3121 154.678 51.1462 154.457C51.9476 154.245 53.073 154.153 54.4593 154.197C57.224 154.284 60.9098 154.908 64.8529 156.056C68.7959 157.205 72.2164 158.652 74.5578 160.052C75.7317 160.754 76.6095 161.43 77.1482 162.032C77.7089 162.659 77.7957 163.081 77.716 163.328Z" stroke="#E9502D"/>
<path d="M80.5036 162.212C80.4239 162.459 80.1033 162.763 79.2692 162.983C78.4677 163.196 77.3423 163.288 75.9561 163.244C73.1914 163.156 69.5055 162.533 65.5625 161.384C61.6195 160.235 58.199 158.789 55.8576 157.389C54.6836 156.687 53.8059 156.011 53.2671 155.408C52.7064 154.781 52.6197 154.359 52.6994 154.112C52.779 153.865 53.0997 153.562 53.9338 153.341C54.7352 153.129 55.8606 153.037 57.2469 153.081C60.0116 153.168 63.6974 153.792 67.6405 154.941C71.5835 156.089 75.004 157.536 77.3454 158.936C78.5193 159.638 79.3971 160.314 79.9358 160.916C80.4965 161.543 80.5832 161.965 80.5036 162.212Z" stroke="#E9502D"/>
<path d="M80.5261 160.229C80.4464 160.476 80.1257 160.779 79.2916 161C78.4902 161.212 77.3648 161.304 75.9785 161.26C73.2138 161.173 69.528 160.549 65.585 159.401C61.6419 158.252 58.2214 156.805 55.8801 155.405C54.7061 154.703 53.8283 154.028 53.2896 153.425C52.7289 152.798 52.6422 152.376 52.7218 152.129C52.8015 151.882 53.1221 151.579 53.9562 151.358C54.7577 151.146 55.8831 151.054 57.2693 151.097C60.0341 151.185 63.7199 151.809 67.6629 152.957C71.606 154.106 75.0264 155.553 77.3678 156.953C78.5418 157.655 79.4196 158.33 79.9583 158.933C80.519 159.56 80.6057 159.982 80.5261 160.229Z" stroke="#E9502D"/>
<path d="M78.4831 160.915C78.4034 161.162 78.0828 161.465 77.2487 161.686C76.4472 161.898 75.3218 161.99 73.9356 161.946C71.1708 161.859 67.485 161.235 63.542 160.087C59.5989 158.938 56.1785 157.491 53.8371 156.091C52.6631 155.389 51.7853 154.714 51.2466 154.111C50.6859 153.484 50.5992 153.062 50.6789 152.815C50.7585 152.568 51.0792 152.265 51.9133 152.044C52.7147 151.832 53.8401 151.74 55.2264 151.783C57.9911 151.871 61.6769 152.495 65.6199 153.643C69.563 154.792 72.9835 156.239 75.3249 157.639C76.4988 158.341 77.3766 159.016 77.9153 159.619C78.476 160.246 78.5627 160.668 78.4831 160.915Z" stroke="#E9502D"/>
<path d="M80.5261 160.229C80.4464 160.476 80.1257 160.779 79.2916 161C78.4902 161.212 77.3648 161.304 75.9785 161.26C73.2138 161.173 69.528 160.549 65.585 159.401C61.6419 158.252 58.2214 156.805 55.8801 155.405C54.7061 154.703 53.8283 154.028 53.2896 153.425C52.7289 152.798 52.6422 152.376 52.7218 152.129C52.8015 151.882 53.1221 151.579 53.9562 151.358C54.7577 151.146 55.8831 151.054 57.2693 151.097C60.0341 151.185 63.7199 151.809 67.6629 152.957C71.606 154.106 75.0264 155.553 77.3678 156.953C78.5418 157.655 79.4196 158.33 79.9583 158.933C80.519 159.56 80.6057 159.982 80.5261 160.229Z" stroke="#E9502D"/>
<path d="M79.0583 159.105C78.9786 159.352 78.658 159.656 77.8239 159.877C77.0224 160.089 75.897 160.181 74.5108 160.137C71.746 160.05 68.0602 159.426 64.1172 158.277C60.1741 157.128 56.7537 155.682 54.4123 154.282C53.2383 153.58 52.3605 152.904 51.8218 152.301C51.2611 151.674 51.1744 151.252 51.254 151.005C51.3337 150.758 51.6544 150.455 52.4885 150.234C53.2899 150.022 54.4153 149.93 55.8015 149.974C58.5663 150.061 62.2521 150.685 66.1951 151.834C70.1382 152.982 73.5587 154.429 75.9 155.829C77.074 156.531 77.9518 157.207 78.4905 157.809C79.0512 158.436 79.1379 158.858 79.0583 159.105Z" stroke="#E9502D"/>
<path d="M81.8678 156.007C81.7882 156.254 81.4675 156.558 80.6334 156.778C79.832 156.99 78.7066 157.083 77.3203 157.039C74.5556 156.951 70.8698 156.328 66.9268 155.179C62.9837 154.03 59.5632 152.584 57.2218 151.184C56.0479 150.482 55.1701 149.806 54.6314 149.203C54.0707 148.576 53.984 148.154 54.0636 147.907C54.1433 147.66 54.4639 147.357 55.298 147.136C56.0995 146.924 57.2249 146.832 58.6111 146.876C61.3759 146.963 65.0617 147.587 69.0047 148.736C72.9478 149.884 76.3682 151.331 78.7096 152.731C79.8836 153.433 80.7614 154.109 81.3001 154.711C81.8608 155.338 81.9475 155.76 81.8678 156.007Z" stroke="#E9502D"/>
<path d="M88.4513 129.554C88.3717 129.801 88.051 130.104 87.2169 130.325C86.4155 130.537 85.2901 130.629 83.9038 130.585C81.1391 130.498 77.4533 129.874 73.5102 128.725C69.5672 127.577 66.1467 126.13 63.8053 124.73C62.6314 124.028 61.7536 123.352 61.2149 122.75C60.6542 122.123 60.5675 121.701 60.6471 121.454C60.7268 121.207 61.0474 120.903 61.8815 120.683C62.683 120.47 63.8084 120.378 65.1946 120.422C67.9593 120.51 71.6452 121.133 75.5882 122.282C79.5313 123.431 82.9517 124.877 85.2931 126.277C86.4671 126.979 87.3449 127.655 87.8836 128.258C88.4443 128.885 88.531 129.307 88.4513 129.554Z" stroke="#E9502D"/>
<path d="M86.5344 135.585C86.4547 135.832 86.134 136.135 85.2999 136.356C84.4985 136.568 83.3731 136.66 81.9868 136.616C79.2221 136.529 75.5363 135.905 71.5933 134.757C67.6502 133.608 64.2297 132.161 61.8884 130.761C60.7144 130.059 59.8366 129.383 59.2979 128.781C58.7372 128.154 58.6505 127.732 58.7301 127.485C58.8098 127.238 59.1304 126.935 59.9645 126.714C60.766 126.502 61.8914 126.41 63.2776 126.453C66.0424 126.541 69.7282 127.165 73.6712 128.313C77.6143 129.462 81.0347 130.908 83.3761 132.309C84.5501 133.011 85.4279 133.686 85.9666 134.289C86.5273 134.916 86.614 135.338 86.5344 135.585Z" stroke="#E9502D"/>
<path d="M93.7526 118.615C93.673 118.862 93.3523 119.166 92.5182 119.386C91.7168 119.598 90.5914 119.691 89.2051 119.647C86.4404 119.559 82.7546 118.936 78.8115 117.787C74.8685 116.638 71.448 115.192 69.1066 113.791C67.9326 113.089 67.0549 112.414 66.5161 111.811C65.9555 111.184 65.8687 110.762 65.9484 110.515C66.028 110.268 66.3487 109.965 67.1828 109.744C67.9842 109.532 69.1096 109.44 70.4959 109.484C73.2606 109.571 76.9464 110.195 80.8895 111.344C84.8325 112.492 88.253 113.939 90.5944 115.339C91.7684 116.041 92.6461 116.717 93.1848 117.319C93.7455 117.946 93.8323 118.368 93.7526 118.615Z" stroke="#E9502D"/>
<path d="M91.2609 126.455C91.1813 126.702 90.8606 127.005 90.0265 127.226C89.2251 127.438 88.0997 127.53 86.7134 127.487C83.9487 127.399 80.2629 126.775 76.3198 125.627C72.3768 124.478 68.9563 123.031 66.6149 121.631C65.4409 120.929 64.5632 120.254 64.0245 119.651C63.4638 119.024 63.377 118.602 63.4567 118.355C63.5363 118.108 63.857 117.805 64.6911 117.584C65.4925 117.372 66.6179 117.28 68.0042 117.324C70.7689 117.411 74.4547 118.035 78.3978 119.183C82.3408 120.332 85.7613 121.779 88.1027 123.179C89.2767 123.881 90.1544 124.556 90.6931 125.159C91.2538 125.786 91.3406 126.208 91.2609 126.455Z" stroke="#E9502D"/>
<path d="M92.986 121.027C92.9064 121.274 92.5857 121.578 91.7516 121.798C90.9502 122.01 89.8248 122.103 88.4385 122.059C85.6738 121.971 81.988 121.348 78.0449 120.199C74.1019 119.05 70.6814 117.604 68.34 116.204C67.166 115.502 66.2883 114.826 65.7495 114.223C65.1889 113.596 65.1021 113.174 65.1818 112.927C65.2614 112.68 65.5821 112.377 66.4162 112.156C67.2176 111.944 68.343 111.852 69.7293 111.896C72.494 111.983 76.1798 112.607 80.1229 113.756C84.0659 114.904 87.4864 116.351 89.8278 117.751C91.0018 118.453 91.8795 119.129 92.4182 119.731C92.9789 120.358 93.0657 120.78 92.986 121.027Z" stroke="#E9502D"/>
<path d="M93.1791 118.514C93.0663 118.864 92.6832 119.225 91.8486 119.5C91.0305 119.769 89.891 119.916 88.493 119.919C85.7038 119.926 82.0039 119.363 78.064 118.217C74.1241 117.071 70.7271 115.569 68.4205 114.079C67.2643 113.333 66.4068 112.605 65.8881 111.946C65.3588 111.275 65.254 110.772 65.3668 110.423C65.4796 110.073 65.8627 109.712 66.6973 109.437C67.5154 109.168 68.6549 109.021 70.0529 109.018C72.8422 109.011 76.5421 109.574 80.4819 110.72C84.4218 111.866 87.8188 113.368 90.1255 114.858C91.2816 115.604 92.1391 116.332 92.6579 116.991C93.1871 117.662 93.2919 118.165 93.1791 118.514Z" stroke="#E9502D"/>
<path d="M92.8402 119.579C92.7274 119.929 92.3444 120.29 91.5098 120.564C90.6917 120.834 89.5522 120.981 88.1541 120.984C85.3649 120.991 81.665 120.428 77.7251 119.282C73.7853 118.135 70.3882 116.634 68.0816 115.144C66.9255 114.398 66.068 113.67 65.5492 113.011C65.02 112.34 64.9151 111.837 65.028 111.487C65.1408 111.138 65.5238 110.777 66.3584 110.502C67.1765 110.233 68.316 110.086 69.7141 110.083C72.5033 110.076 76.2032 110.639 80.1431 111.785C84.0829 112.931 87.48 114.433 89.7866 115.923C90.9427 116.669 91.8002 117.397 92.319 118.055C92.8482 118.727 92.9531 119.23 92.8402 119.579Z" stroke="#E9502D"/>
<path d="M92.1635 121.71C92.0507 122.06 91.6676 122.42 90.833 122.695C90.0149 122.965 88.8754 123.112 87.4774 123.115C84.6882 123.122 80.9882 122.559 77.0484 121.413C73.1085 120.266 69.7115 118.764 67.4048 117.275C66.2487 116.528 65.3912 115.801 64.8724 115.142C64.3432 114.47 64.2384 113.968 64.3512 113.618C64.464 113.269 64.8471 112.908 65.6817 112.633C66.4998 112.364 67.6393 112.217 69.0373 112.214C71.8265 112.207 75.5264 112.77 79.4663 113.916C83.4062 115.062 86.8032 116.564 89.1098 118.054C90.266 118.8 91.1235 119.528 91.6422 120.186C92.1715 120.858 92.2763 121.36 92.1635 121.71Z" stroke="#E9502D"/>
<path d="M92.3324 121.177C92.2196 121.527 91.8366 121.887 91.002 122.162C90.1839 122.432 89.0443 122.578 87.6463 122.582C84.8571 122.589 81.1572 122.026 77.2173 120.879C73.2775 119.733 69.8804 118.231 67.5738 116.742C66.4176 115.995 65.5601 115.268 65.0414 114.609C64.5121 113.937 64.4073 113.435 64.5201 113.085C64.633 112.735 65.016 112.375 65.8506 112.1C66.6687 111.83 67.8082 111.684 69.2062 111.68C71.9955 111.674 75.6954 112.236 79.6352 113.383C83.5751 114.529 86.9722 116.031 89.2788 117.52C90.4349 118.267 91.2924 118.995 91.8112 119.653C92.3404 120.325 92.4453 120.827 92.3324 121.177Z" stroke="#E9502D"/>
<path d="M91.9899 122.247C91.9103 122.494 91.5896 122.797 90.7555 123.018C89.9541 123.23 88.8287 123.322 87.4424 123.278C84.6777 123.191 80.9919 122.567 77.0488 121.418C73.1058 120.269 69.6853 118.823 67.3439 117.423C66.1699 116.721 65.2922 116.045 64.7535 115.443C64.1928 114.816 64.106 114.394 64.1857 114.147C64.2653 113.899 64.586 113.596 65.4201 113.375C66.2215 113.163 67.3469 113.071 68.7332 113.115C71.4979 113.202 75.1837 113.826 79.1268 114.975C83.0698 116.124 86.4903 117.57 88.8317 118.97C90.0057 119.672 90.8834 120.348 91.4222 120.95C91.9828 121.578 92.0696 122 91.9899 122.247Z" stroke="#E9502D"/>
<path d="M91.2304 124.641C91.1339 124.94 90.7808 125.271 89.9476 125.518C89.138 125.759 88.0057 125.879 86.6136 125.859C83.8366 125.818 80.1438 125.225 76.2023 124.078C72.2608 122.93 68.8521 121.456 66.5281 120.011C65.363 119.287 64.4956 118.585 63.9669 117.955C63.4229 117.306 63.3256 116.844 63.4221 116.545C63.5185 116.246 63.8717 115.915 64.7048 115.667C65.5144 115.426 66.6467 115.307 68.0389 115.327C70.8158 115.367 74.5087 115.96 78.4502 117.108C82.3916 118.255 85.8004 119.73 88.1244 121.174C89.2894 121.899 90.1569 122.6 90.6855 123.231C91.2295 123.879 91.3269 124.342 91.2304 124.641Z" stroke="#E9502D"/>
<path d="M93.1791 118.514C93.0663 118.864 92.6832 119.225 91.8486 119.5C91.0305 119.769 89.891 119.916 88.493 119.919C85.7038 119.926 82.0039 119.363 78.064 118.217C74.1241 117.071 70.7271 115.569 68.4205 114.079C67.2643 113.333 66.4068 112.605 65.8881 111.946C65.3588 111.275 65.254 110.772 65.3668 110.423C65.4796 110.073 65.8627 109.712 66.6973 109.437C67.5154 109.168 68.6549 109.021 70.0529 109.018C72.8422 109.011 76.5421 109.574 80.4819 110.72C84.4218 111.866 87.8188 113.368 90.1255 114.858C91.2816 115.604 92.1391 116.332 92.6579 116.991C93.1871 117.662 93.2919 118.165 93.1791 118.514Z" stroke="#E9502D"/>
<path d="M92.8402 119.579C92.7274 119.929 92.3444 120.29 91.5098 120.564C90.6917 120.834 89.5522 120.981 88.1541 120.984C85.3649 120.991 81.665 120.428 77.7251 119.282C73.7853 118.135 70.3882 116.634 68.0816 115.144C66.9255 114.398 66.068 113.67 65.5492 113.011C65.02 112.34 64.9151 111.837 65.028 111.487C65.1408 111.138 65.5238 110.777 66.3584 110.502C67.1765 110.233 68.316 110.086 69.7141 110.083C72.5033 110.076 76.2032 110.639 80.1431 111.785C84.0829 112.931 87.48 114.433 89.7866 115.923C90.9427 116.669 91.8002 117.397 92.319 118.055C92.8482 118.727 92.9531 119.23 92.8402 119.579Z" stroke="#E9502D"/>
<path d="M92.1635 121.71C92.0507 122.06 91.6676 122.42 90.833 122.695C90.0149 122.965 88.8754 123.112 87.4774 123.115C84.6882 123.122 80.9882 122.559 77.0484 121.413C73.1085 120.266 69.7115 118.764 67.4048 117.275C66.2487 116.528 65.3912 115.801 64.8724 115.142C64.3432 114.47 64.2384 113.968 64.3512 113.618C64.464 113.269 64.8471 112.908 65.6817 112.633C66.4998 112.364 67.6393 112.217 69.0373 112.214C71.8265 112.207 75.5264 112.77 79.4663 113.916C83.4062 115.062 86.8032 116.564 89.1098 118.054C90.266 118.8 91.1235 119.528 91.6422 120.186C92.1715 120.858 92.2763 121.36 92.1635 121.71Z" stroke="#E9502D"/>
<path d="M92.3324 121.177C92.2196 121.527 91.8366 121.887 91.002 122.162C90.1839 122.432 89.0443 122.578 87.6463 122.582C84.8571 122.589 81.1572 122.026 77.2173 120.879C73.2775 119.733 69.8804 118.231 67.5738 116.742C66.4176 115.995 65.5601 115.268 65.0414 114.609C64.5121 113.937 64.4073 113.435 64.5201 113.085C64.633 112.735 65.016 112.375 65.8506 112.1C66.6687 111.83 67.8082 111.684 69.2062 111.68C71.9955 111.674 75.6954 112.236 79.6352 113.383C83.5751 114.529 86.9722 116.031 89.2788 117.52C90.4349 118.267 91.2924 118.995 91.8112 119.653C92.3404 120.325 92.4453 120.827 92.3324 121.177Z" stroke="#E9502D"/>
<path d="M91.9899 122.247C91.9103 122.494 91.5896 122.797 90.7555 123.018C89.9541 123.23 88.8287 123.322 87.4424 123.278C84.6777 123.191 80.9919 122.567 77.0488 121.418C73.1058 120.269 69.6853 118.823 67.3439 117.423C66.1699 116.721 65.2922 116.045 64.7535 115.443C64.1928 114.816 64.106 114.394 64.1857 114.147C64.2653 113.899 64.586 113.596 65.4201 113.375C66.2215 113.163 67.3469 113.071 68.7332 113.115C71.4979 113.202 75.1837 113.826 79.1268 114.975C83.0698 116.124 86.4903 117.57 88.8317 118.97C90.0057 119.672 90.8834 120.348 91.4222 120.95C91.9828 121.578 92.0696 122 91.9899 122.247Z" stroke="#E9502D"/>
<path d="M91.2304 124.641C91.1339 124.94 90.7808 125.271 89.9476 125.518C89.138 125.759 88.0057 125.879 86.6136 125.859C83.8366 125.818 80.1438 125.225 76.2023 124.078C72.2608 122.93 68.8521 121.456 66.5281 120.011C65.363 119.287 64.4956 118.585 63.9669 117.955C63.4229 117.306 63.3256 116.844 63.4221 116.545C63.5185 116.246 63.8717 115.915 64.7048 115.667C65.5144 115.426 66.6467 115.307 68.0389 115.327C70.8158 115.367 74.5087 115.96 78.4502 117.108C82.3916 118.255 85.8004 119.73 88.1244 121.174C89.2894 121.899 90.1569 122.6 90.6855 123.231C91.2295 123.879 91.3269 124.342 91.2304 124.641Z" stroke="#E9502D"/>
<path d="M91.1479 124.905C91.035 125.255 90.652 125.615 89.8174 125.89C88.9993 126.16 87.8598 126.306 86.4618 126.31C83.6725 126.317 79.9726 125.754 76.0328 124.607C72.0929 123.461 68.6958 121.959 66.3892 120.47C65.2331 119.723 64.3756 118.996 63.8568 118.337C63.3276 117.665 63.2227 117.163 63.3356 116.813C63.4484 116.463 63.8314 116.103 64.666 115.828C65.4841 115.558 66.6237 115.412 68.0217 115.408C70.8109 115.402 74.5108 115.964 78.4507 117.111C82.3905 118.257 85.7876 119.759 88.0942 121.248C89.2504 121.995 90.1079 122.723 90.6266 123.381C91.1559 124.053 91.2607 124.555 91.1479 124.905Z" stroke="#E9502D"/>
<path d="M90.467 127.039C90.3873 127.286 90.0667 127.589 89.2325 127.81C88.4311 128.022 87.3057 128.114 85.9195 128.07C83.1547 127.983 79.4689 127.359 75.5259 126.21C71.5828 125.061 68.1623 123.615 65.821 122.215C64.647 121.513 63.7692 120.837 63.2305 120.235C62.6698 119.608 62.5831 119.185 62.6627 118.938C62.7424 118.691 63.0631 118.388 63.8972 118.167C64.6986 117.955 65.824 117.863 67.2102 117.907C69.975 117.994 73.6608 118.618 77.6038 119.767C81.5469 120.916 84.9674 122.362 87.3087 123.762C88.4827 124.464 89.3605 125.14 89.8992 125.742C90.4599 126.37 90.5466 126.792 90.467 127.039Z" stroke="#E9502D"/>
<path d="M89.9592 128.636C89.8795 128.883 89.5588 129.187 88.7247 129.407C87.9233 129.619 86.7979 129.712 85.4117 129.668C82.6469 129.58 78.9611 128.957 75.0181 127.808C71.075 126.659 67.6545 125.213 65.3132 123.812C64.1392 123.11 63.2614 122.435 62.7227 121.832C62.162 121.205 62.0753 120.783 62.1549 120.536C62.2346 120.289 62.5552 119.986 63.3894 119.765C64.1908 119.553 65.3162 119.461 66.7024 119.505C69.4672 119.592 73.153 120.216 77.096 121.365C81.0391 122.513 84.4595 123.96 86.8009 125.36C87.9749 126.062 88.8527 126.738 89.3914 127.34C89.9521 127.967 90.0388 128.389 89.9592 128.636Z" stroke="#E9502D"/>
<path d="M89.9592 128.636C89.8795 128.883 89.5588 129.187 88.7247 129.407C87.9233 129.619 86.7979 129.712 85.4117 129.668C82.6469 129.58 78.9611 128.957 75.0181 127.808C71.075 126.659 67.6545 125.213 65.3132 123.812C64.1392 123.11 63.2614 122.435 62.7227 121.832C62.162 121.205 62.0753 120.783 62.1549 120.536C62.2346 120.289 62.5552 119.986 63.3894 119.765C64.1908 119.553 65.3162 119.461 66.7024 119.505C69.4672 119.592 73.153 120.216 77.096 121.365C81.0391 122.513 84.4595 123.96 86.8009 125.36C87.9749 126.062 88.8527 126.738 89.3914 127.34C89.9521 127.967 90.0388 128.389 89.9592 128.636Z" stroke="#E9502D"/>
<path d="M89.538 129.965C89.4416 130.264 89.0884 130.595 88.2552 130.843C87.4457 131.083 86.3133 131.203 84.9212 131.183C82.1443 131.143 78.4514 130.549 74.5099 129.402C70.5684 128.254 67.1597 126.78 64.8357 125.335C63.6707 124.611 62.8032 123.909 62.2746 123.279C61.7305 122.63 61.6332 122.168 61.7297 121.869C61.8261 121.57 62.1793 121.239 63.0125 120.991C63.822 120.75 64.9543 120.631 66.3465 120.651C69.1234 120.691 72.8163 121.285 76.7578 122.432C80.6992 123.58 84.108 125.054 86.432 126.498C87.597 127.223 88.4645 127.924 88.9931 128.555C89.5371 129.204 89.6345 129.666 89.538 129.965Z" stroke="#E9502D"/>
<path d="M88.7782 132.36C88.6654 132.709 88.2824 133.07 87.4478 133.345C86.6297 133.614 85.4901 133.761 84.0921 133.764C81.3029 133.771 77.603 133.208 73.6631 132.062C69.7233 130.916 66.3262 129.414 64.0196 127.924C62.8634 127.178 62.0059 126.45 61.4872 125.792C60.9579 125.12 60.8531 124.618 60.9659 124.268C61.0788 123.918 61.4618 123.558 62.2964 123.283C63.1145 123.013 64.254 122.866 65.652 122.863C68.4413 122.856 72.1412 123.419 76.081 124.565C80.0209 125.712 83.418 127.214 85.7246 128.703C86.8807 129.45 87.7382 130.177 88.257 130.836C88.7862 131.508 88.8911 132.01 88.7782 132.36Z" stroke="#E9502D"/>
<path d="M88.5224 133.161C88.4259 133.46 88.0728 133.791 87.2396 134.039C86.43 134.279 85.2977 134.399 83.9056 134.379C81.1286 134.338 77.4358 133.745 73.4943 132.598C69.5528 131.45 66.1441 129.976 63.8201 128.531C62.655 127.807 61.7875 127.105 61.2589 126.475C60.7149 125.826 60.6176 125.364 60.714 125.065C60.8105 124.766 61.1637 124.435 61.9968 124.187C62.8064 123.946 63.9387 123.827 65.3309 123.847C68.1078 123.887 71.8007 124.48 75.7421 125.628C79.6836 126.775 83.0924 128.25 85.4163 129.694C86.5814 130.419 87.4489 131.12 87.9775 131.751C88.5215 132.399 88.6189 132.862 88.5224 133.161Z" stroke="#E9502D"/>
<path d="M88.0973 134.494C88.0177 134.741 87.697 135.044 86.8629 135.265C86.0615 135.477 84.9361 135.569 83.5498 135.526C80.7851 135.438 77.0993 134.814 73.1562 133.666C69.2132 132.517 65.7927 131.071 63.4513 129.67C62.2774 128.968 61.3996 128.293 60.8609 127.69C60.3002 127.063 60.2135 126.641 60.2931 126.394C60.3728 126.147 60.6934 125.844 61.5275 125.623C62.329 125.411 63.4543 125.319 64.8406 125.363C67.6053 125.45 71.2912 126.074 75.2342 127.222C79.1772 128.371 82.5977 129.818 84.9391 131.218C86.1131 131.92 86.9908 132.596 87.5296 133.198C88.0903 133.825 88.177 134.247 88.0973 134.494Z" stroke="#E9502D"/>
<path d="M87.3373 136.889C87.2409 137.188 86.8877 137.519 86.0545 137.767C85.245 138.007 84.1127 138.127 82.7205 138.107C79.9436 138.066 76.2507 137.473 72.3092 136.326C68.3678 135.178 64.959 133.704 62.635 132.259C61.47 131.535 60.6025 130.833 60.0739 130.203C59.5299 129.554 59.4325 129.092 59.529 128.793C59.6254 128.494 59.9786 128.163 60.8118 127.915C61.6213 127.674 62.7537 127.555 64.1458 127.575C66.9227 127.615 70.6156 128.208 74.5571 129.356C78.4986 130.503 81.9073 131.978 84.2313 133.422C85.3963 134.147 86.2638 134.848 86.7924 135.479C87.3365 136.127 87.4338 136.59 87.3373 136.889Z" stroke="#E9502D"/>
<path d="M87.589 136.092C87.5094 136.339 87.1887 136.643 86.3546 136.863C85.5532 137.075 84.4278 137.168 83.0415 137.124C80.2768 137.036 76.591 136.413 72.6479 135.264C68.7049 134.115 65.2844 132.669 62.943 131.269C61.7691 130.567 60.8913 129.891 60.3526 129.288C59.7919 128.661 59.7051 128.239 59.7848 127.992C59.8645 127.745 60.1851 127.442 61.0192 127.221C61.8207 127.009 62.946 126.917 64.3323 126.961C67.097 127.048 70.7829 127.672 74.7259 128.821C78.6689 129.969 82.0894 131.416 84.4308 132.816C85.6048 133.518 86.4825 134.194 87.0213 134.796C87.582 135.423 87.6687 135.845 87.589 136.092Z" stroke="#E9502D"/>
<path d="M87.2548 137.153C87.142 137.502 86.7589 137.863 85.9243 138.138C85.1062 138.407 83.9667 138.554 82.5687 138.557C79.7795 138.564 76.0795 138.001 72.1397 136.855C68.1998 135.709 64.8028 134.207 62.4961 132.717C61.34 131.971 60.4825 131.243 59.9637 130.585C59.4345 129.913 59.3297 129.411 59.4425 129.061C59.5553 128.711 59.9384 128.351 60.773 128.076C61.5911 127.806 62.7306 127.659 64.1286 127.656C66.9178 127.649 70.6178 128.212 74.5576 129.358C78.4975 130.505 81.8945 132.007 84.2012 133.496C85.3573 134.243 86.2148 134.97 86.7336 135.629C87.2628 136.301 87.3676 136.803 87.2548 137.153Z" stroke="#E9502D"/>
<path d="M86.4086 139.815C86.2958 140.165 85.9127 140.525 85.0781 140.8C84.26 141.069 83.1205 141.216 81.7225 141.219C78.9333 141.226 75.2334 140.663 71.2935 139.517C67.3536 138.371 63.9566 136.869 61.6499 135.379C60.4938 134.633 59.6363 133.905 59.1176 133.247C58.5883 132.575 58.4835 132.073 58.5963 131.723C58.7091 131.373 59.0922 131.013 59.9268 130.738C60.7449 130.468 61.8844 130.321 63.2824 130.318C66.0716 130.311 69.7716 130.874 73.7114 132.02C77.6513 133.167 81.0483 134.669 83.355 136.158C84.5111 136.905 85.3686 137.632 85.8874 138.291C86.4166 138.963 86.5214 139.465 86.4086 139.815Z" stroke="#E9502D"/>
<path d="M88.5224 133.161C88.4259 133.46 88.0728 133.791 87.2396 134.039C86.43 134.279 85.2977 134.399 83.9056 134.379C81.1286 134.338 77.4358 133.745 73.4943 132.598C69.5528 131.45 66.1441 129.976 63.8201 128.531C62.655 127.807 61.7875 127.105 61.2589 126.475C60.7149 125.826 60.6176 125.364 60.714 125.065C60.8105 124.766 61.1637 124.435 61.9968 124.187C62.8064 123.946 63.9387 123.827 65.3309 123.847C68.1078 123.887 71.8007 124.48 75.7421 125.628C79.6836 126.775 83.0924 128.25 85.4163 129.694C86.5814 130.419 87.4489 131.12 87.9775 131.751C88.5215 132.399 88.6189 132.862 88.5224 133.161Z" stroke="#E9502D"/>
<path d="M88.0973 134.494C88.0177 134.741 87.697 135.044 86.8629 135.265C86.0615 135.477 84.9361 135.569 83.5498 135.526C80.7851 135.438 77.0993 134.814 73.1562 133.666C69.2132 132.517 65.7927 131.071 63.4513 129.67C62.2774 128.968 61.3996 128.293 60.8609 127.69C60.3002 127.063 60.2135 126.641 60.2931 126.394C60.3728 126.147 60.6934 125.844 61.5275 125.623C62.329 125.411 63.4543 125.319 64.8406 125.363C67.6053 125.45 71.2912 126.074 75.2342 127.222C79.1772 128.371 82.5977 129.818 84.9391 131.218C86.1131 131.92 86.9908 132.596 87.5296 133.198C88.0903 133.825 88.177 134.247 88.0973 134.494Z" stroke="#E9502D"/>
<path d="M87.3373 136.889C87.2409 137.188 86.8877 137.519 86.0545 137.767C85.245 138.007 84.1127 138.127 82.7205 138.107C79.9436 138.066 76.2507 137.473 72.3092 136.326C68.3678 135.178 64.959 133.704 62.635 132.259C61.47 131.535 60.6025 130.833 60.0739 130.203C59.5299 129.554 59.4325 129.092 59.529 128.793C59.6254 128.494 59.9786 128.163 60.8118 127.915C61.6213 127.674 62.7537 127.555 64.1458 127.575C66.9227 127.615 70.6156 128.208 74.5571 129.356C78.4986 130.503 81.9073 131.978 84.2313 133.422C85.3963 134.147 86.2638 134.848 86.7924 135.479C87.3365 136.127 87.4338 136.59 87.3373 136.889Z" stroke="#E9502D"/>
<path d="M87.589 136.092C87.5094 136.339 87.1887 136.643 86.3546 136.863C85.5532 137.075 84.4278 137.168 83.0415 137.124C80.2768 137.036 76.591 136.413 72.6479 135.264C68.7049 134.115 65.2844 132.669 62.943 131.269C61.7691 130.567 60.8913 129.891 60.3526 129.288C59.7919 128.661 59.7051 128.239 59.7848 127.992C59.8645 127.745 60.1851 127.442 61.0192 127.221C61.8207 127.009 62.946 126.917 64.3323 126.961C67.097 127.048 70.7829 127.672 74.7259 128.821C78.6689 129.969 82.0894 131.416 84.4308 132.816C85.6048 133.518 86.4825 134.194 87.0213 134.796C87.582 135.423 87.6687 135.845 87.589 136.092Z" stroke="#E9502D"/>
<path d="M87.2548 137.153C87.142 137.502 86.7589 137.863 85.9243 138.138C85.1062 138.407 83.9667 138.554 82.5687 138.557C79.7795 138.564 76.0795 138.001 72.1397 136.855C68.1998 135.709 64.8028 134.207 62.4961 132.717C61.34 131.971 60.4825 131.243 59.9637 130.585C59.4345 129.913 59.3297 129.411 59.4425 129.061C59.5553 128.711 59.9384 128.351 60.773 128.076C61.5911 127.806 62.7306 127.659 64.1286 127.656C66.9178 127.649 70.6178 128.212 74.5576 129.358C78.4975 130.505 81.8945 132.007 84.2012 133.496C85.3573 134.243 86.2148 134.97 86.7336 135.629C87.2628 136.301 87.3676 136.803 87.2548 137.153Z" stroke="#E9502D"/>
<path d="M86.4086 139.815C86.2958 140.165 85.9127 140.525 85.0781 140.8C84.26 141.069 83.1205 141.216 81.7225 141.219C78.9333 141.226 75.2334 140.663 71.2935 139.517C67.3536 138.371 63.9566 136.869 61.6499 135.379C60.4938 134.633 59.6363 133.905 59.1176 133.247C58.5883 132.575 58.4835 132.073 58.5963 131.723C58.7091 131.373 59.0922 131.013 59.9268 130.738C60.7449 130.468 61.8844 130.321 63.2824 130.318C66.0716 130.311 69.7716 130.874 73.7114 132.02C77.6513 133.167 81.0483 134.669 83.355 136.158C84.5111 136.905 85.3686 137.632 85.8874 138.291C86.4166 138.963 86.5214 139.465 86.4086 139.815Z" stroke="#E9502D"/>
<path d="M91.1479 124.905C91.035 125.255 90.652 125.615 89.8174 125.89C88.9993 126.16 87.8598 126.306 86.4618 126.31C83.6725 126.317 79.9726 125.754 76.0328 124.607C72.0929 123.461 68.6958 121.959 66.3892 120.47C65.2331 119.723 64.3756 118.996 63.8568 118.337C63.3276 117.665 63.2227 117.163 63.3356 116.813C63.4484 116.463 63.8314 116.103 64.666 115.828C65.4841 115.558 66.6237 115.412 68.0217 115.408C70.8109 115.402 74.5108 115.964 78.4507 117.111C82.3905 118.257 85.7876 119.759 88.0942 121.248C89.2504 121.995 90.1079 122.723 90.6266 123.381C91.1559 124.053 91.2607 124.555 91.1479 124.905Z" stroke="#E9502D"/>
<path d="M90.467 127.039C90.3873 127.286 90.0667 127.589 89.2325 127.81C88.4311 128.022 87.3057 128.114 85.9195 128.07C83.1547 127.983 79.4689 127.359 75.5259 126.21C71.5828 125.061 68.1623 123.615 65.821 122.215C64.647 121.513 63.7692 120.837 63.2305 120.235C62.6698 119.608 62.5831 119.185 62.6627 118.938C62.7424 118.691 63.0631 118.388 63.8972 118.167C64.6986 117.955 65.824 117.863 67.2102 117.907C69.975 117.994 73.6608 118.618 77.6038 119.767C81.5469 120.916 84.9674 122.362 87.3087 123.762C88.4827 124.464 89.3605 125.14 89.8992 125.742C90.4599 126.37 90.5466 126.792 90.467 127.039Z" stroke="#E9502D"/>
<path d="M89.9592 128.636C89.8795 128.883 89.5588 129.187 88.7247 129.407C87.9233 129.619 86.7979 129.712 85.4117 129.668C82.6469 129.58 78.9611 128.957 75.0181 127.808C71.075 126.659 67.6545 125.213 65.3132 123.812C64.1392 123.11 63.2614 122.435 62.7227 121.832C62.162 121.205 62.0753 120.783 62.1549 120.536C62.2346 120.289 62.5552 119.986 63.3894 119.765C64.1908 119.553 65.3162 119.461 66.7024 119.505C69.4672 119.592 73.153 120.216 77.096 121.365C81.0391 122.513 84.4595 123.96 86.8009 125.36C87.9749 126.062 88.8527 126.738 89.3914 127.34C89.9521 127.967 90.0388 128.389 89.9592 128.636Z" stroke="#E9502D"/>
<path d="M89.9592 128.636C89.8795 128.883 89.5588 129.187 88.7247 129.407C87.9233 129.619 86.7979 129.712 85.4117 129.668C82.6469 129.58 78.9611 128.957 75.0181 127.808C71.075 126.659 67.6545 125.213 65.3132 123.812C64.1392 123.11 63.2614 122.435 62.7227 121.832C62.162 121.205 62.0753 120.783 62.1549 120.536C62.2346 120.289 62.5552 119.986 63.3894 119.765C64.1908 119.553 65.3162 119.461 66.7024 119.505C69.4672 119.592 73.153 120.216 77.096 121.365C81.0391 122.513 84.4595 123.96 86.8009 125.36C87.9749 126.062 88.8527 126.738 89.3914 127.34C89.9521 127.967 90.0388 128.389 89.9592 128.636Z" stroke="#E9502D"/>
<path d="M89.538 129.965C89.4416 130.264 89.0884 130.595 88.2552 130.843C87.4457 131.083 86.3133 131.203 84.9212 131.183C82.1443 131.143 78.4514 130.549 74.5099 129.402C70.5684 128.254 67.1597 126.78 64.8357 125.335C63.6707 124.611 62.8032 123.909 62.2746 123.279C61.7305 122.63 61.6332 122.168 61.7297 121.869C61.8261 121.57 62.1793 121.239 63.0125 120.991C63.822 120.75 64.9543 120.631 66.3465 120.651C69.1234 120.691 72.8163 121.285 76.7578 122.432C80.6992 123.58 84.108 125.054 86.432 126.498C87.597 127.223 88.4645 127.924 88.9931 128.555C89.5371 129.204 89.6345 129.666 89.538 129.965Z" stroke="#E9502D"/>
<path d="M88.7782 132.36C88.6654 132.709 88.2824 133.07 87.4478 133.345C86.6297 133.614 85.4901 133.761 84.0921 133.764C81.3029 133.771 77.603 133.208 73.6631 132.062C69.7233 130.916 66.3262 129.414 64.0196 127.924C62.8634 127.178 62.0059 126.45 61.4872 125.792C60.9579 125.12 60.8531 124.618 60.9659 124.268C61.0788 123.918 61.4618 123.558 62.2964 123.283C63.1145 123.013 64.254 122.866 65.652 122.863C68.4413 122.856 72.1412 123.419 76.081 124.565C80.0209 125.712 83.418 127.214 85.7246 128.703C86.8807 129.45 87.7382 130.177 88.257 130.836C88.7862 131.508 88.8911 132.01 88.7782 132.36Z" stroke="#E9502D"/>
<path d="M88.5224 133.161C88.4259 133.46 88.0728 133.791 87.2396 134.039C86.43 134.279 85.2977 134.399 83.9056 134.379C81.1286 134.338 77.4358 133.745 73.4943 132.598C69.5528 131.45 66.1441 129.976 63.8201 128.531C62.655 127.807 61.7875 127.105 61.2589 126.475C60.7149 125.826 60.6176 125.364 60.714 125.065C60.8105 124.766 61.1637 124.435 61.9968 124.187C62.8064 123.946 63.9387 123.827 65.3309 123.847C68.1078 123.887 71.8007 124.48 75.7421 125.628C79.6836 126.775 83.0924 128.25 85.4163 129.694C86.5814 130.419 87.4489 131.12 87.9775 131.751C88.5215 132.399 88.6189 132.862 88.5224 133.161Z" stroke="#E9502D"/>
<path d="M88.0973 134.494C88.0177 134.741 87.697 135.044 86.8629 135.265C86.0615 135.477 84.9361 135.569 83.5498 135.526C80.7851 135.438 77.0993 134.814 73.1562 133.666C69.2132 132.517 65.7927 131.071 63.4513 129.67C62.2774 128.968 61.3996 128.293 60.8609 127.69C60.3002 127.063 60.2135 126.641 60.2931 126.394C60.3728 126.147 60.6934 125.844 61.5275 125.623C62.329 125.411 63.4543 125.319 64.8406 125.363C67.6053 125.45 71.2912 126.074 75.2342 127.222C79.1772 128.371 82.5977 129.818 84.9391 131.218C86.1131 131.92 86.9908 132.596 87.5296 133.198C88.0903 133.825 88.177 134.247 88.0973 134.494Z" stroke="#E9502D"/>
<path d="M87.3373 136.889C87.2409 137.188 86.8877 137.519 86.0545 137.767C85.245 138.007 84.1127 138.127 82.7205 138.107C79.9436 138.066 76.2507 137.473 72.3092 136.326C68.3678 135.178 64.959 133.704 62.635 132.259C61.47 131.535 60.6025 130.833 60.0739 130.203C59.5299 129.554 59.4325 129.092 59.529 128.793C59.6254 128.494 59.9786 128.163 60.8118 127.915C61.6213 127.674 62.7537 127.555 64.1458 127.575C66.9227 127.615 70.6156 128.208 74.5571 129.356C78.4986 130.503 81.9073 131.978 84.2313 133.422C85.3963 134.147 86.2638 134.848 86.7924 135.479C87.3365 136.127 87.4338 136.59 87.3373 136.889Z" stroke="#E9502D"/>
<path d="M87.589 136.092C87.5094 136.339 87.1887 136.643 86.3546 136.863C85.5532 137.075 84.4278 137.168 83.0415 137.124C80.2768 137.036 76.591 136.413 72.6479 135.264C68.7049 134.115 65.2844 132.669 62.943 131.269C61.7691 130.567 60.8913 129.891 60.3526 129.288C59.7919 128.661 59.7051 128.239 59.7848 127.992C59.8645 127.745 60.1851 127.442 61.0192 127.221C61.8207 127.009 62.946 126.917 64.3323 126.961C67.097 127.048 70.7829 127.672 74.7259 128.821C78.6689 129.969 82.0894 131.416 84.4308 132.816C85.6048 133.518 86.4825 134.194 87.0213 134.796C87.582 135.423 87.6687 135.845 87.589 136.092Z" stroke="#E9502D"/>
<path d="M87.2548 137.153C87.142 137.502 86.7589 137.863 85.9243 138.138C85.1062 138.407 83.9667 138.554 82.5687 138.557C79.7795 138.564 76.0795 138.001 72.1397 136.855C68.1998 135.709 64.8028 134.207 62.4961 132.717C61.34 131.971 60.4825 131.243 59.9637 130.585C59.4345 129.913 59.3297 129.411 59.4425 129.061C59.5553 128.711 59.9384 128.351 60.773 128.076C61.5911 127.806 62.7306 127.659 64.1286 127.656C66.9178 127.649 70.6178 128.212 74.5576 129.358C78.4975 130.505 81.8945 132.007 84.2012 133.496C85.3573 134.243 86.2148 134.97 86.7336 135.629C87.2628 136.301 87.3676 136.803 87.2548 137.153Z" stroke="#E9502D"/>
<path d="M86.4086 139.815C86.2958 140.165 85.9127 140.525 85.0781 140.8C84.26 141.069 83.1205 141.216 81.7225 141.219C78.9333 141.226 75.2334 140.663 71.2935 139.517C67.3536 138.371 63.9566 136.869 61.6499 135.379C60.4938 134.633 59.6363 133.905 59.1176 133.247C58.5883 132.575 58.4835 132.073 58.5963 131.723C58.7091 131.373 59.0922 131.013 59.9268 130.738C60.7449 130.468 61.8844 130.321 63.2824 130.318C66.0716 130.311 69.7716 130.874 73.7114 132.02C77.6513 133.167 81.0483 134.669 83.355 136.158C84.5111 136.905 85.3686 137.632 85.8874 138.291C86.4166 138.963 86.5214 139.465 86.4086 139.815Z" stroke="#E9502D"/>
<path d="M88.5224 133.161C88.4259 133.46 88.0728 133.791 87.2396 134.039C86.43 134.279 85.2977 134.399 83.9056 134.379C81.1286 134.338 77.4358 133.745 73.4943 132.598C69.5528 131.45 66.1441 129.976 63.8201 128.531C62.655 127.807 61.7875 127.105 61.2589 126.475C60.7149 125.826 60.6176 125.364 60.714 125.065C60.8105 124.766 61.1637 124.435 61.9968 124.187C62.8064 123.946 63.9387 123.827 65.3309 123.847C68.1078 123.887 71.8007 124.48 75.7421 125.628C79.6836 126.775 83.0924 128.25 85.4163 129.694C86.5814 130.419 87.4489 131.12 87.9775 131.751C88.5215 132.399 88.6189 132.862 88.5224 133.161Z" stroke="#E9502D"/>
<path d="M88.0973 134.494C88.0177 134.741 87.697 135.044 86.8629 135.265C86.0615 135.477 84.9361 135.569 83.5498 135.526C80.7851 135.438 77.0993 134.814 73.1562 133.666C69.2132 132.517 65.7927 131.071 63.4513 129.67C62.2774 128.968 61.3996 128.293 60.8609 127.69C60.3002 127.063 60.2135 126.641 60.2931 126.394C60.3728 126.147 60.6934 125.844 61.5275 125.623C62.329 125.411 63.4543 125.319 64.8406 125.363C67.6053 125.45 71.2912 126.074 75.2342 127.222C79.1772 128.371 82.5977 129.818 84.9391 131.218C86.1131 131.92 86.9908 132.596 87.5296 133.198C88.0903 133.825 88.177 134.247 88.0973 134.494Z" stroke="#E9502D"/>
<path d="M87.3373 136.889C87.2409 137.188 86.8877 137.519 86.0545 137.767C85.245 138.007 84.1127 138.127 82.7205 138.107C79.9436 138.066 76.2507 137.473 72.3092 136.326C68.3678 135.178 64.959 133.704 62.635 132.259C61.47 131.535 60.6025 130.833 60.0739 130.203C59.5299 129.554 59.4325 129.092 59.529 128.793C59.6254 128.494 59.9786 128.163 60.8118 127.915C61.6213 127.674 62.7537 127.555 64.1458 127.575C66.9227 127.615 70.6156 128.208 74.5571 129.356C78.4986 130.503 81.9073 131.978 84.2313 133.422C85.3963 134.147 86.2638 134.848 86.7924 135.479C87.3365 136.127 87.4338 136.59 87.3373 136.889Z" stroke="#E9502D"/>
<path d="M87.589 136.092C87.5094 136.339 87.1887 136.643 86.3546 136.863C85.5532 137.075 84.4278 137.168 83.0415 137.124C80.2768 137.036 76.591 136.413 72.6479 135.264C68.7049 134.115 65.2844 132.669 62.943 131.269C61.7691 130.567 60.8913 129.891 60.3526 129.288C59.7919 128.661 59.7051 128.239 59.7848 127.992C59.8645 127.745 60.1851 127.442 61.0192 127.221C61.8207 127.009 62.946 126.917 64.3323 126.961C67.097 127.048 70.7829 127.672 74.7259 128.821C78.6689 129.969 82.0894 131.416 84.4308 132.816C85.6048 133.518 86.4825 134.194 87.0213 134.796C87.582 135.423 87.6687 135.845 87.589 136.092Z" stroke="#E9502D"/>
<path d="M87.2548 137.153C87.142 137.502 86.7589 137.863 85.9243 138.138C85.1062 138.407 83.9667 138.554 82.5687 138.557C79.7795 138.564 76.0795 138.001 72.1397 136.855C68.1998 135.709 64.8028 134.207 62.4961 132.717C61.34 131.971 60.4825 131.243 59.9637 130.585C59.4345 129.913 59.3297 129.411 59.4425 129.061C59.5553 128.711 59.9384 128.351 60.773 128.076C61.5911 127.806 62.7306 127.659 64.1286 127.656C66.9178 127.649 70.6178 128.212 74.5576 129.358C78.4975 130.505 81.8945 132.007 84.2012 133.496C85.3573 134.243 86.2148 134.97 86.7336 135.629C87.2628 136.301 87.3676 136.803 87.2548 137.153Z" stroke="#E9502D"/>
<path d="M86.4086 139.815C86.2958 140.165 85.9127 140.525 85.0781 140.8C84.26 141.069 83.1205 141.216 81.7225 141.219C78.9333 141.226 75.2334 140.663 71.2935 139.517C67.3536 138.371 63.9566 136.869 61.6499 135.379C60.4938 134.633 59.6363 133.905 59.1176 133.247C58.5883 132.575 58.4835 132.073 58.5963 131.723C58.7091 131.373 59.0922 131.013 59.9268 130.738C60.7449 130.468 61.8844 130.321 63.2824 130.318C66.0716 130.311 69.7716 130.874 73.7114 132.02C77.6513 133.167 81.0483 134.669 83.355 136.158C84.5111 136.905 85.3686 137.632 85.8874 138.291C86.4166 138.963 86.5214 139.465 86.4086 139.815Z" stroke="#E9502D"/>
<path d="M87.7626 135.555C87.6498 135.905 87.2667 136.266 86.4321 136.541C85.614 136.81 84.4745 136.957 83.0765 136.96C80.2873 136.967 76.5874 136.404 72.6475 135.258C68.7076 134.112 65.3106 132.61 63.004 131.12C61.8478 130.374 60.9903 129.646 60.4716 128.987C59.9423 128.316 59.8375 127.813 59.9503 127.464C60.0631 127.114 60.4462 126.753 61.2808 126.478C62.0989 126.209 63.2384 126.062 64.6364 126.059C67.4256 126.052 71.1256 126.615 75.0654 127.761C79.0053 128.907 82.4023 130.409 84.709 131.899C85.8651 132.645 86.7226 133.373 87.2414 134.032C87.7706 134.703 87.8754 135.206 87.7626 135.555Z" stroke="#E9502D"/>
<path d="M87.3373 136.889C87.2409 137.188 86.8877 137.519 86.0545 137.767C85.245 138.007 84.1127 138.127 82.7205 138.107C79.9436 138.066 76.2507 137.473 72.3092 136.326C68.3678 135.178 64.959 133.704 62.635 132.259C61.47 131.535 60.6025 130.833 60.0739 130.203C59.5299 129.554 59.4325 129.092 59.529 128.793C59.6254 128.494 59.9786 128.163 60.8118 127.915C61.6213 127.674 62.7537 127.555 64.1458 127.575C66.9227 127.615 70.6156 128.208 74.5571 129.356C78.4986 130.503 81.9073 131.978 84.2313 133.422C85.3963 134.147 86.2638 134.848 86.7924 135.479C87.3365 136.127 87.4338 136.59 87.3373 136.889Z" stroke="#E9502D"/>
<path d="M86.7475 138.75C86.6346 139.1 86.2516 139.46 85.417 139.735C84.5989 140.004 83.4594 140.151 82.0614 140.155C79.2721 140.161 75.5722 139.598 71.6324 138.452C67.6925 137.306 64.2954 135.804 61.9888 134.314C60.8327 133.568 59.9752 132.84 59.4564 132.182C58.9272 131.51 58.8223 131.008 58.9352 130.658C59.048 130.308 59.431 129.948 60.2657 129.673C61.0838 129.403 62.2233 129.257 63.6213 129.253C66.4105 129.246 70.1104 129.809 74.0503 130.956C77.9901 132.102 81.3872 133.604 83.6938 135.093C84.85 135.84 85.7075 136.567 86.2262 137.226C86.7555 137.898 86.8603 138.4 86.7475 138.75Z" stroke="#E9502D"/>
<path d="M86.83 138.485C86.7336 138.784 86.3804 139.115 85.5472 139.363C84.7377 139.604 83.6053 139.723 82.2132 139.703C79.4362 139.663 75.7434 139.07 71.8019 137.922C67.8604 136.775 64.4517 135.301 62.1277 133.856C60.9627 133.132 60.0952 132.43 59.5666 131.8C59.0225 131.151 58.9252 130.689 59.0217 130.39C59.1181 130.091 59.4713 129.759 60.3045 129.512C61.114 129.271 62.2463 129.151 63.6385 129.172C66.4154 129.212 70.1083 129.805 74.0498 130.953C77.9912 132.1 81.4 133.574 83.724 135.019C84.889 135.743 85.7565 136.445 86.2851 137.075C86.8291 137.724 86.9265 138.186 86.83 138.485Z" stroke="#E9502D"/>
<path d="M86.4086 139.815C86.2958 140.165 85.9127 140.525 85.0781 140.8C84.26 141.069 83.1205 141.216 81.7225 141.219C78.9333 141.226 75.2334 140.663 71.2935 139.517C67.3536 138.371 63.9566 136.869 61.6499 135.379C60.4938 134.633 59.6363 133.905 59.1176 133.247C58.5883 132.575 58.4835 132.073 58.5963 131.723C58.7091 131.373 59.0922 131.013 59.9268 130.738C60.7449 130.468 61.8844 130.321 63.2824 130.318C66.0716 130.311 69.7716 130.874 73.7114 132.02C77.6513 133.167 81.0483 134.669 83.355 136.158C84.5111 136.905 85.3686 137.632 85.8874 138.291C86.4166 138.963 86.5214 139.465 86.4086 139.815Z" stroke="#E9502D"/>
<path d="M85.7314 141.946C85.6185 142.295 85.2355 142.656 84.4009 142.931C83.5828 143.2 82.4433 143.347 81.0453 143.35C78.256 143.357 74.5561 142.794 70.6162 141.648C66.6764 140.502 63.2793 139 60.9727 137.51C59.8166 136.764 58.9591 136.036 58.4403 135.378C57.9111 134.706 57.8062 134.203 57.9191 133.854C58.0319 133.504 58.4149 133.144 59.2495 132.869C60.0676 132.599 61.2071 132.452 62.6052 132.449C65.3944 132.442 69.0943 133.005 73.0342 134.151C76.974 135.298 80.3711 136.8 82.6777 138.289C83.8339 139.036 84.6913 139.763 85.2101 140.422C85.7394 141.094 85.8442 141.596 85.7314 141.946Z" stroke="#E9502D"/>
<path d="M85.393 143.011C85.2802 143.36 84.8971 143.721 84.0625 143.996C83.2444 144.265 82.1049 144.412 80.7069 144.415C77.9176 144.422 74.2177 143.859 70.2779 142.713C66.338 141.567 62.941 140.065 60.6343 138.575C59.4782 137.829 58.6207 137.101 58.1019 136.442C57.5727 135.771 57.4679 135.268 57.5807 134.919C57.6935 134.569 58.0766 134.208 58.9112 133.933C59.7293 133.664 60.8688 133.517 62.2668 133.514C65.056 133.507 68.7559 134.07 72.6958 135.216C76.6356 136.363 80.0327 137.864 82.3393 139.354C83.4955 140.1 84.353 140.828 84.8717 141.487C85.401 142.158 85.5058 142.661 85.393 143.011Z" stroke="#E9502D"/>
<path d="M85.0505 144.079C84.9708 144.326 84.6502 144.629 83.816 144.85C83.0146 145.062 81.8892 145.154 80.503 145.111C77.7382 145.023 74.0524 144.399 70.1094 143.251C66.1663 142.102 62.7458 140.655 60.4045 139.255C59.2305 138.553 58.3527 137.878 57.814 137.275C57.2533 136.648 57.1666 136.226 57.2462 135.979C57.3259 135.732 57.6465 135.429 58.4807 135.208C59.2821 134.996 60.4075 134.904 61.7937 134.948C64.5585 135.035 68.2443 135.659 72.1873 136.807C76.1304 137.956 79.5509 139.403 81.8922 140.803C83.0662 141.505 83.944 142.18 84.4827 142.783C85.0434 143.41 85.1301 143.832 85.0505 144.079Z" stroke="#E9502D"/>
<path d="M84.2043 146.741C84.1246 146.988 83.804 147.292 82.9698 147.512C82.1684 147.724 81.043 147.816 79.6568 147.773C76.892 147.685 73.2062 147.062 69.2632 145.913C65.3201 144.764 61.8997 143.318 59.5583 141.917C58.3843 141.215 57.5065 140.54 56.9678 139.937C56.4071 139.31 56.3204 138.888 56.4 138.641C56.4797 138.394 56.8004 138.091 57.6345 137.87C58.4359 137.658 59.5613 137.566 60.9475 137.61C63.7123 137.697 67.3981 138.321 71.3411 139.47C75.2842 140.618 78.7047 142.065 81.046 143.465C82.22 144.167 83.0978 144.843 83.6365 145.445C84.1972 146.072 84.2839 146.494 84.2043 146.741Z" stroke="#E9502D"/>
<path d="M84.3774 146.205C84.2645 146.555 83.8815 146.915 83.0469 147.19C82.2288 147.46 81.0893 147.606 79.6912 147.61C76.902 147.616 73.2021 147.054 69.2622 145.907C65.3224 144.761 61.9253 143.259 59.6187 141.77C58.4626 141.023 57.6051 140.295 57.0863 139.637C56.5571 138.965 56.4522 138.463 56.5651 138.113C56.6779 137.763 57.0609 137.403 57.8955 137.128C58.7136 136.858 59.8531 136.712 61.2512 136.708C64.0404 136.701 67.7403 137.264 71.6802 138.411C75.62 139.557 79.0171 141.059 81.3237 142.548C82.4798 143.295 83.3373 144.022 83.8561 144.681C84.3853 145.353 84.4902 145.855 84.3774 146.205Z" stroke="#E9502D"/>
<path d="M83.87 147.803C83.7572 148.152 83.3742 148.513 82.5395 148.788C81.7215 149.057 80.5819 149.204 79.1839 149.207C76.3947 149.214 72.6948 148.651 68.7549 147.505C64.8151 146.359 61.418 144.857 59.1114 143.367C57.9552 142.621 57.0977 141.893 56.579 141.234C56.0497 140.563 55.9449 140.06 56.0577 139.711C56.1706 139.361 56.5536 139 57.3882 138.725C58.2063 138.456 59.3458 138.309 60.7438 138.306C63.5331 138.299 67.233 138.862 71.1728 140.008C75.1127 141.155 78.5098 142.656 80.8164 144.146C81.9725 144.892 82.83 145.62 83.3488 146.279C83.878 146.95 83.9829 147.453 83.87 147.803Z" stroke="#E9502D"/>
<path d="M83.3622 149.4C83.2494 149.75 82.8663 150.11 82.0317 150.385C81.2136 150.655 80.0741 150.802 78.6761 150.805C75.8869 150.812 72.187 150.249 68.2471 149.103C64.3073 147.956 60.9102 146.454 58.6036 144.965C57.4474 144.218 56.5899 143.491 56.0712 142.832C55.5419 142.16 55.4371 141.658 55.5499 141.308C55.6628 140.958 56.0458 140.598 56.8804 140.323C57.6985 140.054 58.838 139.907 60.236 139.904C63.0253 139.897 66.7252 140.46 70.665 141.606C74.6049 142.752 78.002 144.254 80.3086 145.744C81.4647 146.49 82.3222 147.218 82.841 147.876C83.3702 148.548 83.475 149.05 83.3622 149.4Z" stroke="#E9502D"/>
<path d="M85.393 143.011C85.2802 143.36 84.8971 143.721 84.0625 143.996C83.2444 144.265 82.1049 144.412 80.7069 144.415C77.9176 144.422 74.2177 143.859 70.2779 142.713C66.338 141.567 62.941 140.065 60.6343 138.575C59.4782 137.829 58.6207 137.101 58.1019 136.442C57.5727 135.771 57.4679 135.268 57.5807 134.919C57.6935 134.569 58.0766 134.208 58.9112 133.933C59.7293 133.664 60.8688 133.517 62.2668 133.514C65.056 133.507 68.7559 134.07 72.6958 135.216C76.6356 136.363 80.0327 137.864 82.3393 139.354C83.4955 140.1 84.353 140.828 84.8717 141.487C85.401 142.158 85.5058 142.661 85.393 143.011Z" stroke="#E9502D"/>
<path d="M85.0505 144.079C84.9708 144.326 84.6502 144.629 83.816 144.85C83.0146 145.062 81.8892 145.154 80.503 145.111C77.7382 145.023 74.0524 144.399 70.1094 143.251C66.1663 142.102 62.7458 140.655 60.4045 139.255C59.2305 138.553 58.3527 137.878 57.814 137.275C57.2533 136.648 57.1666 136.226 57.2462 135.979C57.3259 135.732 57.6465 135.429 58.4807 135.208C59.2821 134.996 60.4075 134.904 61.7937 134.948C64.5585 135.035 68.2443 135.659 72.1873 136.807C76.1304 137.956 79.5509 139.403 81.8922 140.803C83.0662 141.505 83.944 142.18 84.4827 142.783C85.0434 143.41 85.1301 143.832 85.0505 144.079Z" stroke="#E9502D"/>
<path d="M84.2043 146.741C84.1246 146.988 83.804 147.292 82.9698 147.512C82.1684 147.724 81.043 147.816 79.6568 147.773C76.892 147.685 73.2062 147.062 69.2632 145.913C65.3201 144.764 61.8997 143.318 59.5583 141.917C58.3843 141.215 57.5065 140.54 56.9678 139.937C56.4071 139.31 56.3204 138.888 56.4 138.641C56.4797 138.394 56.8004 138.091 57.6345 137.87C58.4359 137.658 59.5613 137.566 60.9475 137.61C63.7123 137.697 67.3981 138.321 71.3411 139.47C75.2842 140.618 78.7047 142.065 81.046 143.465C82.22 144.167 83.0978 144.843 83.6365 145.445C84.1972 146.072 84.2839 146.494 84.2043 146.741Z" stroke="#E9502D"/>
<path d="M84.3774 146.205C84.2645 146.555 83.8815 146.915 83.0469 147.19C82.2288 147.46 81.0893 147.606 79.6912 147.61C76.902 147.616 73.2021 147.054 69.2622 145.907C65.3224 144.761 61.9253 143.259 59.6187 141.77C58.4626 141.023 57.6051 140.295 57.0863 139.637C56.5571 138.965 56.4522 138.463 56.5651 138.113C56.6779 137.763 57.0609 137.403 57.8955 137.128C58.7136 136.858 59.8531 136.712 61.2512 136.708C64.0404 136.701 67.7403 137.264 71.6802 138.411C75.62 139.557 79.0171 141.059 81.3237 142.548C82.4798 143.295 83.3373 144.022 83.8561 144.681C84.3853 145.353 84.4902 145.855 84.3774 146.205Z" stroke="#E9502D"/>
<path d="M83.87 147.803C83.7572 148.152 83.3742 148.513 82.5395 148.788C81.7215 149.057 80.5819 149.204 79.1839 149.207C76.3947 149.214 72.6948 148.651 68.7549 147.505C64.8151 146.359 61.418 144.857 59.1114 143.367C57.9552 142.621 57.0977 141.893 56.579 141.234C56.0497 140.563 55.9449 140.06 56.0577 139.711C56.1706 139.361 56.5536 139 57.3882 138.725C58.2063 138.456 59.3458 138.309 60.7438 138.306C63.5331 138.299 67.233 138.862 71.1728 140.008C75.1127 141.155 78.5098 142.656 80.8164 144.146C81.9725 144.892 82.83 145.62 83.3488 146.279C83.878 146.95 83.9829 147.453 83.87 147.803Z" stroke="#E9502D"/>
<path d="M83.3622 149.4C83.2494 149.75 82.8663 150.11 82.0317 150.385C81.2136 150.655 80.0741 150.802 78.6761 150.805C75.8869 150.812 72.187 150.249 68.2471 149.103C64.3073 147.956 60.9102 146.454 58.6036 144.965C57.4474 144.218 56.5899 143.491 56.0712 142.832C55.5419 142.16 55.4371 141.658 55.5499 141.308C55.6628 140.958 56.0458 140.598 56.8804 140.323C57.6985 140.054 58.838 139.907 60.236 139.904C63.0253 139.897 66.7252 140.46 70.665 141.606C74.6049 142.752 78.002 144.254 80.3086 145.744C81.4647 146.49 82.3222 147.218 82.841 147.876C83.3702 148.548 83.475 149.05 83.3622 149.4Z" stroke="#E9502D"/>
<path d="M83.0192 150.47C82.9396 150.717 82.6189 151.02 81.7848 151.241C80.9834 151.453 79.858 151.545 78.4717 151.501C75.707 151.414 72.0212 150.79 68.0781 149.641C64.1351 148.493 60.7146 147.046 58.3732 145.646C57.1992 144.944 56.3215 144.268 55.7828 143.666C55.2221 143.039 55.1353 142.617 55.215 142.37C55.2946 142.123 55.6153 141.819 56.4494 141.599C57.2508 141.386 58.3762 141.294 59.7625 141.338C62.5272 141.426 66.213 142.049 70.1561 143.198C74.0991 144.347 77.5196 145.793 79.861 147.193C81.035 147.895 81.9127 148.571 82.4514 149.174C83.0121 149.801 83.0989 150.223 83.0192 150.47Z" stroke="#E9502D"/>
<path d="M82.5981 151.799C82.5016 152.098 82.1485 152.429 81.3153 152.677C80.5057 152.918 79.3734 153.037 77.9813 153.017C75.2043 152.977 71.5115 152.384 67.57 151.236C63.6285 150.089 60.2197 148.615 57.8958 147.17C56.7307 146.446 55.8632 145.744 55.3346 145.114C54.7906 144.465 54.6933 144.003 54.7897 143.704C54.8862 143.404 55.2393 143.073 56.0725 142.826C56.8821 142.585 58.0144 142.465 59.4065 142.486C62.1835 142.526 65.8764 143.119 69.8178 144.267C73.7593 145.414 77.1681 146.888 79.492 148.333C80.6571 149.057 81.5246 149.759 82.0532 150.389C82.5972 151.038 82.6945 151.5 82.5981 151.799Z" stroke="#E9502D"/>
<path d="M81.9213 153.929C81.8249 154.228 81.4717 154.559 80.6385 154.807C79.829 155.047 78.6966 155.167 77.3045 155.147C74.5276 155.106 70.8347 154.513 66.8932 153.366C62.9517 152.218 59.543 150.744 57.219 149.299C56.054 148.575 55.1865 147.873 54.6579 147.243C54.1138 146.594 54.0165 146.132 54.113 145.833C54.2094 145.534 54.5626 145.203 55.3958 144.955C56.2053 144.714 57.3376 144.595 58.7298 144.615C61.5067 144.655 65.1996 145.249 69.1411 146.396C73.0825 147.543 76.4913 149.018 78.8153 150.462C79.9803 151.187 80.8478 151.888 81.3764 152.519C81.9204 153.167 82.0178 153.63 81.9213 153.929Z" stroke="#E9502D"/>
<path d="M82.0077 153.66C81.8949 154.01 81.5119 154.371 80.6772 154.646C79.8591 154.915 78.7196 155.062 77.3216 155.065C74.5324 155.072 70.8325 154.509 66.8926 153.363C62.9528 152.217 59.5557 150.715 57.2491 149.225C56.0929 148.479 55.2354 147.751 54.7167 147.092C54.1874 146.421 54.0826 145.918 54.1954 145.569C54.3083 145.219 54.6913 144.858 55.5259 144.583C56.344 144.314 57.4835 144.167 58.8815 144.164C61.6708 144.157 65.3707 144.72 69.3105 145.866C73.2504 147.012 76.6475 148.514 78.9541 150.004C80.1102 150.75 80.9677 151.478 81.4865 152.137C82.0157 152.808 82.1206 153.311 82.0077 153.66Z" stroke="#E9502D"/>
<path d="M81.6652 154.729C81.5856 154.976 81.2649 155.28 80.4308 155.501C79.6294 155.713 78.504 155.805 77.1177 155.761C74.353 155.674 70.6672 155.05 66.7241 153.901C62.7811 152.752 59.3606 151.306 57.0192 149.906C55.8452 149.204 54.9675 148.528 54.4287 147.926C53.868 147.298 53.7813 146.876 53.861 146.629C53.9406 146.382 54.2613 146.079 55.0954 145.858C55.8968 145.646 57.0222 145.554 58.4085 145.598C61.1732 145.685 64.859 146.309 68.8021 147.458C72.7451 148.607 76.1656 150.053 78.507 151.453C79.681 152.155 80.5587 152.831 81.0974 153.433C81.6581 154.06 81.7449 154.482 81.6652 154.729Z" stroke="#E9502D"/>
<path d="M80.9921 156.856C80.8793 157.206 80.4962 157.566 79.6616 157.841C78.8435 158.11 77.704 158.257 76.306 158.261C73.5168 158.267 69.8168 157.704 65.877 156.558C61.9371 155.412 58.5401 153.91 56.2334 152.42C55.0773 151.674 54.2198 150.946 53.7011 150.288C53.1718 149.616 53.067 149.114 53.1798 148.764C53.2926 148.414 53.6757 148.054 54.5103 147.779C55.3284 147.509 56.4679 147.362 57.8659 147.359C60.6551 147.352 64.3551 147.915 68.2949 149.061C72.2348 150.208 75.6318 151.71 77.9385 153.199C79.0946 153.946 79.9521 154.673 80.4709 155.332C81.0001 156.004 81.1049 156.506 80.9921 156.856Z" stroke="#E9502D"/>
<path d="M80.6496 157.925C80.5699 158.172 80.2493 158.475 79.4152 158.696C78.6137 158.908 77.4883 159 76.1021 158.956C73.3373 158.869 69.6515 158.245 65.7085 157.096C61.7654 155.948 58.345 154.501 56.0036 153.101C54.8296 152.399 53.9518 151.723 53.4131 151.121C52.8524 150.494 52.7657 150.072 52.8454 149.825C52.925 149.578 53.2457 149.274 54.0798 149.054C54.8812 148.842 56.0066 148.749 57.3929 148.793C60.1576 148.881 63.8434 149.504 67.7865 150.653C71.7295 151.802 75.15 153.248 77.4914 154.648C78.6653 155.35 79.5431 156.026 80.0818 156.629C80.6425 157.256 80.7292 157.678 80.6496 157.925Z" stroke="#E9502D"/>
<path d="M79.9765 160.051C79.8636 160.401 79.4806 160.761 78.646 161.036C77.8279 161.306 76.6884 161.452 75.2904 161.456C72.5011 161.463 68.8012 160.9 64.8614 159.753C60.9215 158.607 57.5244 157.105 55.2178 155.616C54.0617 154.869 53.2042 154.142 52.6854 153.483C52.1562 152.811 52.0514 152.309 52.1642 151.959C52.277 151.609 52.66 151.249 53.4947 150.974C54.3128 150.704 55.4523 150.558 56.8503 150.554C59.6395 150.548 63.3394 151.11 67.2793 152.257C71.2191 153.403 74.6162 154.905 76.9228 156.394C78.079 157.141 78.9365 157.869 79.4552 158.527C79.9845 159.199 80.0893 159.701 79.9765 160.051Z" stroke="#E9502D"/>
<path d="M79.4687 161.649C79.3558 161.999 78.9728 162.359 78.1382 162.634C77.3201 162.903 76.1806 163.05 74.7826 163.053C71.9933 163.06 68.2934 162.497 64.3536 161.351C60.4137 160.205 57.0166 158.703 54.71 157.213C53.5539 156.467 52.6964 155.739 52.1776 155.081C51.6484 154.409 51.5435 153.907 51.6564 153.557C51.7692 153.207 52.1522 152.847 52.9869 152.572C53.8049 152.302 54.9445 152.155 56.3425 152.152C59.1317 152.145 62.8316 152.708 66.7715 153.854C70.7113 155.001 74.1084 156.503 76.415 157.992C77.5712 158.739 78.4287 159.466 78.9474 160.125C79.4767 160.797 79.5815 161.299 79.4687 161.649Z" stroke="#E9502D"/>
<path d="M79.4687 161.649C79.3558 161.999 78.9728 162.359 78.1382 162.634C77.3201 162.903 76.1806 163.05 74.7826 163.053C71.9933 163.06 68.2934 162.497 64.3536 161.351C60.4137 160.205 57.0166 158.703 54.71 157.213C53.5539 156.467 52.6964 155.739 52.1776 155.081C51.6484 154.409 51.5435 153.907 51.6564 153.557C51.7692 153.207 52.1522 152.847 52.9869 152.572C53.8049 152.302 54.9445 152.155 56.3425 152.152C59.1317 152.145 62.8316 152.708 66.7715 153.854C70.7113 155.001 74.1084 156.503 76.415 157.992C77.5712 158.739 78.4287 159.466 78.9474 160.125C79.4767 160.797 79.5815 161.299 79.4687 161.649Z" stroke="#E9502D"/>
<path d="M79.2128 162.449C79.1164 162.748 78.7632 163.079 77.93 163.327C77.1205 163.568 75.9882 163.687 74.596 163.667C71.8191 163.627 68.1262 163.034 64.1847 161.886C60.2433 160.739 56.8345 159.265 54.5105 157.82C53.3455 157.095 52.478 156.394 51.9494 155.763C51.4053 155.115 51.308 154.653 51.4045 154.353C51.5009 154.054 51.8541 153.723 52.6873 153.476C53.4968 153.235 54.6291 153.115 56.0213 153.135C58.7982 153.176 62.4911 153.769 66.4326 154.916C70.374 156.064 73.7828 157.538 76.1068 158.983C77.2718 159.707 78.1393 160.409 78.6679 161.039C79.212 161.688 79.3093 162.15 79.2128 162.449Z" stroke="#E9502D"/>
<path d="M78.4535 164.844C78.3407 165.193 77.9577 165.554 77.123 165.829C76.3049 166.098 75.1654 166.245 73.7674 166.248C70.9782 166.255 67.2783 165.692 63.3384 164.546C59.3986 163.4 56.0015 161.898 53.6949 160.408C52.5387 159.662 51.6812 158.934 51.1625 158.276C50.6332 157.604 50.5284 157.101 50.6412 156.752C50.7541 156.402 51.1371 156.041 51.9717 155.767C52.7898 155.497 53.9293 155.35 55.3273 155.347C58.1166 155.34 61.8165 155.903 65.7563 157.049C69.6962 158.196 73.0933 159.697 75.3999 161.187C76.556 161.933 77.4135 162.661 77.9323 163.32C78.4615 163.991 78.5664 164.494 78.4535 164.844Z" stroke="#E9502D"/>
<path d="M80.6496 157.925C80.5699 158.172 80.2493 158.475 79.4152 158.696C78.6137 158.908 77.4883 159 76.1021 158.956C73.3373 158.869 69.6515 158.245 65.7085 157.096C61.7654 155.948 58.345 154.501 56.0036 153.101C54.8296 152.399 53.9518 151.723 53.4131 151.121C52.8524 150.494 52.7657 150.072 52.8454 149.825C52.925 149.578 53.2457 149.274 54.0798 149.054C54.8812 148.842 56.0066 148.749 57.3929 148.793C60.1576 148.881 63.8434 149.504 67.7865 150.653C71.7295 151.802 75.15 153.248 77.4914 154.648C78.6653 155.35 79.5431 156.026 80.0818 156.629C80.6425 157.256 80.7292 157.678 80.6496 157.925Z" stroke="#E9502D"/>
<path d="M79.9765 160.051C79.8636 160.401 79.4806 160.761 78.646 161.036C77.8279 161.306 76.6884 161.452 75.2904 161.456C72.5011 161.463 68.8012 160.9 64.8614 159.753C60.9215 158.607 57.5244 157.105 55.2178 155.616C54.0617 154.869 53.2042 154.142 52.6854 153.483C52.1562 152.811 52.0514 152.309 52.1642 151.959C52.277 151.609 52.66 151.249 53.4947 150.974C54.3128 150.704 55.4523 150.558 56.8503 150.554C59.6395 150.548 63.3394 151.11 67.2793 152.257C71.2191 153.403 74.6162 154.905 76.9228 156.394C78.079 157.141 78.9365 157.869 79.4552 158.527C79.9845 159.199 80.0893 159.701 79.9765 160.051Z" stroke="#E9502D"/>
<path d="M79.4687 161.649C79.3558 161.999 78.9728 162.359 78.1382 162.634C77.3201 162.903 76.1806 163.05 74.7826 163.053C71.9933 163.06 68.2934 162.497 64.3536 161.351C60.4137 160.205 57.0166 158.703 54.71 157.213C53.5539 156.467 52.6964 155.739 52.1776 155.081C51.6484 154.409 51.5435 153.907 51.6564 153.557C51.7692 153.207 52.1522 152.847 52.9869 152.572C53.8049 152.302 54.9445 152.155 56.3425 152.152C59.1317 152.145 62.8316 152.708 66.7715 153.854C70.7113 155.001 74.1084 156.503 76.415 157.992C77.5712 158.739 78.4287 159.466 78.9474 160.125C79.4767 160.797 79.5815 161.299 79.4687 161.649Z" stroke="#E9502D"/>
<path d="M79.4687 161.649C79.3558 161.999 78.9728 162.359 78.1382 162.634C77.3201 162.903 76.1806 163.05 74.7826 163.053C71.9933 163.06 68.2934 162.497 64.3536 161.351C60.4137 160.205 57.0166 158.703 54.71 157.213C53.5539 156.467 52.6964 155.739 52.1776 155.081C51.6484 154.409 51.5435 153.907 51.6564 153.557C51.7692 153.207 52.1522 152.847 52.9869 152.572C53.8049 152.302 54.9445 152.155 56.3425 152.152C59.1317 152.145 62.8316 152.708 66.7715 153.854C70.7113 155.001 74.1084 156.503 76.415 157.992C77.5712 158.739 78.4287 159.466 78.9474 160.125C79.4767 160.797 79.5815 161.299 79.4687 161.649Z" stroke="#E9502D"/>
<path d="M79.2128 162.449C79.1164 162.748 78.7632 163.079 77.93 163.327C77.1205 163.568 75.9882 163.687 74.596 163.667C71.8191 163.627 68.1262 163.034 64.1847 161.886C60.2433 160.739 56.8345 159.265 54.5105 157.82C53.3455 157.095 52.478 156.394 51.9494 155.763C51.4053 155.115 51.308 154.653 51.4045 154.353C51.5009 154.054 51.8541 153.723 52.6873 153.476C53.4968 153.235 54.6291 153.115 56.0213 153.135C58.7982 153.176 62.4911 153.769 66.4326 154.916C70.374 156.064 73.7828 157.538 76.1068 158.983C77.2718 159.707 78.1393 160.409 78.6679 161.039C79.212 161.688 79.3093 162.15 79.2128 162.449Z" stroke="#E9502D"/>
<path d="M78.4535 164.844C78.3407 165.193 77.9577 165.554 77.123 165.829C76.3049 166.098 75.1654 166.245 73.7674 166.248C70.9782 166.255 67.2783 165.692 63.3384 164.546C59.3986 163.4 56.0015 161.898 53.6949 160.408C52.5387 159.662 51.6812 158.934 51.1625 158.276C50.6332 157.604 50.5284 157.101 50.6412 156.752C50.7541 156.402 51.1371 156.041 51.9717 155.767C52.7898 155.497 53.9293 155.35 55.3273 155.347C58.1166 155.34 61.8165 155.903 65.7563 157.049C69.6962 158.196 73.0933 159.697 75.3999 161.187C76.556 161.933 77.4135 162.661 77.9323 163.32C78.4615 163.991 78.5664 164.494 78.4535 164.844Z" stroke="#E9502D"/>
<path d="M83.0192 150.47C82.9396 150.717 82.6189 151.02 81.7848 151.241C80.9834 151.453 79.858 151.545 78.4717 151.501C75.707 151.414 72.0212 150.79 68.0781 149.641C64.1351 148.493 60.7146 147.046 58.3732 145.646C57.1992 144.944 56.3215 144.268 55.7828 143.666C55.2221 143.039 55.1353 142.617 55.215 142.37C55.2946 142.123 55.6153 141.819 56.4494 141.599C57.2508 141.386 58.3762 141.294 59.7625 141.338C62.5272 141.426 66.213 142.049 70.1561 143.198C74.0991 144.347 77.5196 145.793 79.861 147.193C81.035 147.895 81.9127 148.571 82.4514 149.174C83.0121 149.801 83.0989 150.223 83.0192 150.47Z" stroke="#E9502D"/>
<path d="M82.5981 151.799C82.5016 152.098 82.1485 152.429 81.3153 152.677C80.5057 152.918 79.3734 153.037 77.9813 153.017C75.2043 152.977 71.5115 152.384 67.57 151.236C63.6285 150.089 60.2197 148.615 57.8958 147.17C56.7307 146.446 55.8632 145.744 55.3346 145.114C54.7906 144.465 54.6933 144.003 54.7897 143.704C54.8862 143.404 55.2393 143.073 56.0725 142.826C56.8821 142.585 58.0144 142.465 59.4065 142.486C62.1835 142.526 65.8764 143.119 69.8178 144.267C73.7593 145.414 77.1681 146.888 79.492 148.333C80.6571 149.057 81.5246 149.759 82.0532 150.389C82.5972 151.038 82.6945 151.5 82.5981 151.799Z" stroke="#E9502D"/>
<path d="M81.9213 153.929C81.8249 154.228 81.4717 154.559 80.6385 154.807C79.829 155.047 78.6966 155.167 77.3045 155.147C74.5276 155.106 70.8347 154.513 66.8932 153.366C62.9517 152.218 59.543 150.744 57.219 149.299C56.054 148.575 55.1865 147.873 54.6579 147.243C54.1138 146.594 54.0165 146.132 54.113 145.833C54.2094 145.534 54.5626 145.203 55.3958 144.955C56.2053 144.714 57.3376 144.595 58.7298 144.615C61.5067 144.655 65.1996 145.249 69.1411 146.396C73.0825 147.543 76.4913 149.018 78.8153 150.462C79.9803 151.187 80.8478 151.888 81.3764 152.519C81.9204 153.167 82.0178 153.63 81.9213 153.929Z" stroke="#E9502D"/>
<path d="M82.0077 153.66C81.8949 154.01 81.5119 154.371 80.6772 154.646C79.8591 154.915 78.7196 155.062 77.3216 155.065C74.5324 155.072 70.8325 154.509 66.8926 153.363C62.9528 152.217 59.5557 150.715 57.2491 149.225C56.0929 148.479 55.2354 147.751 54.7167 147.092C54.1874 146.421 54.0826 145.918 54.1954 145.569C54.3083 145.219 54.6913 144.858 55.5259 144.583C56.344 144.314 57.4835 144.167 58.8815 144.164C61.6708 144.157 65.3707 144.72 69.3105 145.866C73.2504 147.012 76.6475 148.514 78.9541 150.004C80.1102 150.75 80.9677 151.478 81.4865 152.137C82.0157 152.808 82.1206 153.311 82.0077 153.66Z" stroke="#E9502D"/>
<path d="M82.0077 153.66C81.8949 154.01 81.5119 154.371 80.6772 154.646C79.8591 154.915 78.7196 155.062 77.3216 155.065C74.5324 155.072 70.8325 154.509 66.8926 153.363C62.9528 152.217 59.5557 150.715 57.2491 149.225C56.0929 148.479 55.2354 147.751 54.7167 147.092C54.1874 146.421 54.0826 145.918 54.1954 145.569C54.3083 145.219 54.6913 144.858 55.5259 144.583C56.344 144.314 57.4835 144.167 58.8815 144.164C61.6708 144.157 65.3707 144.72 69.3105 145.866C73.2504 147.012 76.6475 148.514 78.9541 150.004C80.1102 150.75 80.9677 151.478 81.4865 152.137C82.0157 152.808 82.1206 153.311 82.0077 153.66Z" stroke="#E9502D"/>
<path d="M81.6652 154.729C81.5856 154.976 81.2649 155.28 80.4308 155.501C79.6294 155.713 78.504 155.805 77.1177 155.761C74.353 155.674 70.6672 155.05 66.7241 153.901C62.7811 152.752 59.3606 151.306 57.0192 149.906C55.8452 149.204 54.9675 148.528 54.4287 147.926C53.868 147.298 53.7813 146.876 53.861 146.629C53.9406 146.382 54.2613 146.079 55.0954 145.858C55.8968 145.646 57.0222 145.554 58.4085 145.598C61.1732 145.685 64.859 146.309 68.8021 147.458C72.7451 148.607 76.1656 150.053 78.507 151.453C79.681 152.155 80.5587 152.831 81.0974 153.433C81.6581 154.06 81.7449 154.482 81.6652 154.729Z" stroke="#E9502D"/>
<path d="M80.9921 156.856C80.8793 157.206 80.4962 157.566 79.6616 157.841C78.8435 158.11 77.704 158.257 76.306 158.261C73.5168 158.267 69.8168 157.704 65.877 156.558C61.9371 155.412 58.5401 153.91 56.2334 152.42C55.0773 151.674 54.2198 150.946 53.7011 150.288C53.1718 149.616 53.067 149.114 53.1798 148.764C53.2926 148.414 53.6757 148.054 54.5103 147.779C55.3284 147.509 56.4679 147.362 57.8659 147.359C60.6551 147.352 64.3551 147.915 68.2949 149.061C72.2348 150.208 75.6318 151.71 77.9385 153.199C79.0946 153.946 79.9521 154.673 80.4709 155.332C81.0001 156.004 81.1049 156.506 80.9921 156.856Z" stroke="#E9502D"/>
<path d="M80.6496 157.925C80.5699 158.172 80.2493 158.475 79.4152 158.696C78.6137 158.908 77.4883 159 76.1021 158.956C73.3373 158.869 69.6515 158.245 65.7085 157.096C61.7654 155.948 58.345 154.501 56.0036 153.101C54.8296 152.399 53.9518 151.723 53.4131 151.121C52.8524 150.494 52.7657 150.072 52.8454 149.825C52.925 149.578 53.2457 149.274 54.0798 149.054C54.8812 148.842 56.0066 148.749 57.3929 148.793C60.1576 148.881 63.8434 149.504 67.7865 150.653C71.7295 151.802 75.15 153.248 77.4914 154.648C78.6653 155.35 79.5431 156.026 80.0818 156.629C80.6425 157.256 80.7292 157.678 80.6496 157.925Z" stroke="#E9502D"/>
<path d="M79.9765 160.051C79.8636 160.401 79.4806 160.761 78.646 161.036C77.8279 161.306 76.6884 161.452 75.2904 161.456C72.5011 161.463 68.8012 160.9 64.8614 159.753C60.9215 158.607 57.5244 157.105 55.2178 155.616C54.0617 154.869 53.2042 154.142 52.6854 153.483C52.1562 152.811 52.0514 152.309 52.1642 151.959C52.277 151.609 52.66 151.249 53.4947 150.974C54.3128 150.704 55.4523 150.558 56.8503 150.554C59.6395 150.548 63.3394 151.11 67.2793 152.257C71.2191 153.403 74.6162 154.905 76.9228 156.394C78.079 157.141 78.9365 157.869 79.4552 158.527C79.9845 159.199 80.0893 159.701 79.9765 160.051Z" stroke="#E9502D"/>
<path d="M79.4687 161.649C79.3558 161.999 78.9728 162.359 78.1382 162.634C77.3201 162.903 76.1806 163.05 74.7826 163.053C71.9933 163.06 68.2934 162.497 64.3536 161.351C60.4137 160.205 57.0166 158.703 54.71 157.213C53.5539 156.467 52.6964 155.739 52.1776 155.081C51.6484 154.409 51.5435 153.907 51.6564 153.557C51.7692 153.207 52.1522 152.847 52.9869 152.572C53.8049 152.302 54.9445 152.155 56.3425 152.152C59.1317 152.145 62.8316 152.708 66.7715 153.854C70.7113 155.001 74.1084 156.503 76.415 157.992C77.5712 158.739 78.4287 159.466 78.9474 160.125C79.4767 160.797 79.5815 161.299 79.4687 161.649Z" stroke="#E9502D"/>
<path d="M79.4687 161.649C79.3558 161.999 78.9728 162.359 78.1382 162.634C77.3201 162.903 76.1806 163.05 74.7826 163.053C71.9933 163.06 68.2934 162.497 64.3536 161.351C60.4137 160.205 57.0166 158.703 54.71 157.213C53.5539 156.467 52.6964 155.739 52.1776 155.081C51.6484 154.409 51.5435 153.907 51.6564 153.557C51.7692 153.207 52.1522 152.847 52.9869 152.572C53.8049 152.302 54.9445 152.155 56.3425 152.152C59.1317 152.145 62.8316 152.708 66.7715 153.854C70.7113 155.001 74.1084 156.503 76.415 157.992C77.5712 158.739 78.4287 159.466 78.9474 160.125C79.4767 160.797 79.5815 161.299 79.4687 161.649Z" stroke="#E9502D"/>
<path d="M79.2128 162.449C79.1164 162.748 78.7632 163.079 77.93 163.327C77.1205 163.568 75.9882 163.687 74.596 163.667C71.8191 163.627 68.1262 163.034 64.1847 161.886C60.2433 160.739 56.8345 159.265 54.5105 157.82C53.3455 157.095 52.478 156.394 51.9494 155.763C51.4053 155.115 51.308 154.653 51.4045 154.353C51.5009 154.054 51.8541 153.723 52.6873 153.476C53.4968 153.235 54.6291 153.115 56.0213 153.135C58.7982 153.176 62.4911 153.769 66.4326 154.916C70.374 156.064 73.7828 157.538 76.1068 158.983C77.2718 159.707 78.1393 160.409 78.6679 161.039C79.212 161.688 79.3093 162.15 79.2128 162.449Z" stroke="#E9502D"/>
<path d="M78.4535 164.844C78.3407 165.193 77.9577 165.554 77.123 165.829C76.3049 166.098 75.1654 166.245 73.7674 166.248C70.9782 166.255 67.2783 165.692 63.3384 164.546C59.3986 163.4 56.0015 161.898 53.6949 160.408C52.5387 159.662 51.6812 158.934 51.1625 158.276C50.6332 157.604 50.5284 157.101 50.6412 156.752C50.7541 156.402 51.1371 156.041 51.9717 155.767C52.7898 155.497 53.9293 155.35 55.3273 155.347C58.1166 155.34 61.8165 155.903 65.7563 157.049C69.6962 158.196 73.0933 159.697 75.3999 161.187C76.556 161.933 77.4135 162.661 77.9323 163.32C78.4615 163.991 78.5664 164.494 78.4535 164.844Z" stroke="#E9502D"/>
<path d="M80.6496 157.925C80.5699 158.172 80.2493 158.475 79.4152 158.696C78.6137 158.908 77.4883 159 76.1021 158.956C73.3373 158.869 69.6515 158.245 65.7085 157.096C61.7654 155.948 58.345 154.501 56.0036 153.101C54.8296 152.399 53.9518 151.723 53.4131 151.121C52.8524 150.494 52.7657 150.072 52.8454 149.825C52.925 149.578 53.2457 149.274 54.0798 149.054C54.8812 148.842 56.0066 148.749 57.3929 148.793C60.1576 148.881 63.8434 149.504 67.7865 150.653C71.7295 151.802 75.15 153.248 77.4914 154.648C78.6653 155.35 79.5431 156.026 80.0818 156.629C80.6425 157.256 80.7292 157.678 80.6496 157.925Z" stroke="#E9502D"/>
<path d="M79.9765 160.051C79.8636 160.401 79.4806 160.761 78.646 161.036C77.8279 161.306 76.6884 161.452 75.2904 161.456C72.5011 161.463 68.8012 160.9 64.8614 159.753C60.9215 158.607 57.5244 157.105 55.2178 155.616C54.0617 154.869 53.2042 154.142 52.6854 153.483C52.1562 152.811 52.0514 152.309 52.1642 151.959C52.277 151.609 52.66 151.249 53.4947 150.974C54.3128 150.704 55.4523 150.558 56.8503 150.554C59.6395 150.548 63.3394 151.11 67.2793 152.257C71.2191 153.403 74.6162 154.905 76.9228 156.394C78.079 157.141 78.9365 157.869 79.4552 158.527C79.9845 159.199 80.0893 159.701 79.9765 160.051Z" stroke="#E9502D"/>
<path d="M79.4687 161.649C79.3558 161.999 78.9728 162.359 78.1382 162.634C77.3201 162.903 76.1806 163.05 74.7826 163.053C71.9933 163.06 68.2934 162.497 64.3536 161.351C60.4137 160.205 57.0166 158.703 54.71 157.213C53.5539 156.467 52.6964 155.739 52.1776 155.081C51.6484 154.409 51.5435 153.907 51.6564 153.557C51.7692 153.207 52.1522 152.847 52.9869 152.572C53.8049 152.302 54.9445 152.155 56.3425 152.152C59.1317 152.145 62.8316 152.708 66.7715 153.854C70.7113 155.001 74.1084 156.503 76.415 157.992C77.5712 158.739 78.4287 159.466 78.9474 160.125C79.4767 160.797 79.5815 161.299 79.4687 161.649Z" stroke="#E9502D"/>
<path d="M79.4687 161.649C79.3558 161.999 78.9728 162.359 78.1382 162.634C77.3201 162.903 76.1806 163.05 74.7826 163.053C71.9933 163.06 68.2934 162.497 64.3536 161.351C60.4137 160.205 57.0166 158.703 54.71 157.213C53.5539 156.467 52.6964 155.739 52.1776 155.081C51.6484 154.409 51.5435 153.907 51.6564 153.557C51.7692 153.207 52.1522 152.847 52.9869 152.572C53.8049 152.302 54.9445 152.155 56.3425 152.152C59.1317 152.145 62.8316 152.708 66.7715 153.854C70.7113 155.001 74.1084 156.503 76.415 157.992C77.5712 158.739 78.4287 159.466 78.9474 160.125C79.4767 160.797 79.5815 161.299 79.4687 161.649Z" stroke="#E9502D"/>
<path d="M79.2128 162.449C79.1164 162.748 78.7632 163.079 77.93 163.327C77.1205 163.568 75.9882 163.687 74.596 163.667C71.8191 163.627 68.1262 163.034 64.1847 161.886C60.2433 160.739 56.8345 159.265 54.5105 157.82C53.3455 157.095 52.478 156.394 51.9494 155.763C51.4053 155.115 51.308 154.653 51.4045 154.353C51.5009 154.054 51.8541 153.723 52.6873 153.476C53.4968 153.235 54.6291 153.115 56.0213 153.135C58.7982 153.176 62.4911 153.769 66.4326 154.916C70.374 156.064 73.7828 157.538 76.1068 158.983C77.2718 159.707 78.1393 160.409 78.6679 161.039C79.212 161.688 79.3093 162.15 79.2128 162.449Z" stroke="#E9502D"/>
<path d="M78.4535 164.844C78.3407 165.193 77.9577 165.554 77.123 165.829C76.3049 166.098 75.1654 166.245 73.7674 166.248C70.9782 166.255 67.2783 165.692 63.3384 164.546C59.3986 163.4 56.0015 161.898 53.6949 160.408C52.5387 159.662 51.6812 158.934 51.1625 158.276C50.6332 157.604 50.5284 157.101 50.6412 156.752C50.7541 156.402 51.1371 156.041 51.9717 155.767C52.7898 155.497 53.9293 155.35 55.3273 155.347C58.1166 155.34 61.8165 155.903 65.7563 157.049C69.6962 158.196 73.0933 159.697 75.3999 161.187C76.556 161.933 77.4135 162.661 77.9323 163.32C78.4615 163.991 78.5664 164.494 78.4535 164.844Z" stroke="#E9502D"/>
<path d="M79.2881 160.739C78.7212 186.515 92.3396 157.5 90.5883 173.775C88.837 190.05 97.2722 179.973 97.2722 179.973C103.746 171.896 106.252 169.842 107.465 173.351C107.465 173.351 107.195 177.302 110.005 177.899C112.815 178.495 115.156 183.771 115.156 183.771" stroke="#E9502D"/>
<path d="M74.9517 99.5703L90.97 104.374L88.9008 110.801L72.8825 105.997L74.9517 99.5703Z" fill="#F8F2EE"/>
<ellipse cx="8.35428" cy="1.80015" rx="8.35428" ry="1.80015" transform="matrix(0.957752 0.288008 -0.306348 0.95195 73.4214 104.385)" fill="#F8F2EE"/>
<ellipse cx="8.35428" cy="1.80015" rx="8.35428" ry="1.80015" transform="matrix(0.957752 0.288008 -0.306348 0.95195 75.3389 98.353)" fill="#E3E1DE" stroke="#E3E1DE"/>
<ellipse cx="6.91519" cy="1.81517" rx="6.91519" ry="1.81517" transform="matrix(0.957834 0.28775 -0.306392 0.951936 76.9956 98.8413)" fill="#F8F2EE" stroke="#E3E1DE"/>
<ellipse cx="6.91393" cy="1.50062" rx="6.91393" ry="1.50062" transform="matrix(0.957755 0.287998 -0.30635 0.951949 76.9971 98.8374)" fill="#E3E1DE" stroke="#F8F2EE"/>
<path d="M76.1836 107.1C79.3098 109.18 84.2585 109.963 85.5415 109.968" stroke="#E3E1DE" stroke-width="0.8"/>
<path d="M75.4722 105.539C77.78 107.388 81.6197 107.815 82.6299 107.729" stroke="#E3E1DE" stroke-width="0.8"/>
<path d="M76.0439 103.74C79.1702 105.82 84.1188 106.603 85.4018 106.608" stroke="#E3E1DE" stroke-width="0.5"/>
<path d="M82.4478 106.393C84.3459 108.128 87.6313 108.377 88.5052 108.245" stroke="#E3E1DE" stroke-width="0.5"/>
</g>
<defs>
<clipPath id="clip0_464_123">
<rect width="163.09" height="228.772" fill="white" transform="translate(30.9038 -8.17725) rotate(18.3575)"/>
</clipPath>
</defs>
</svg>
