<svg width="1984" height="2438" viewBox="0 0 1984 2438" fill="none" xmlns="http://www.w3.org/2000/svg">
<rect width="1984" height="2438" fill="white"/>
<path d="M779.298 1200.16C773.903 1251.15 784.459 1188.51 773.903 1158.29C763.347 1128.07 768.039 1086.2 768.039 1086.2C768.039 1086.2 762.175 1094.07 779.298 1058.18C796.422 1022.29 773.903 921.243 779.298 911.799C784.693 902.356 798.129 834.014 779.298 767.936C760.467 701.858 780.16 662.803 779.298 636.35V597" stroke="black"/>
<path d="M776.891 1217.1C776.889 1216.15 776.871 1214.33 776.862 1213.06C776.853 1211.79 776.835 1209.61 776.822 1208.2C776.809 1206.8 776.792 1204.56 776.784 1203.22C776.776 1201.89 776.759 1199.66 776.746 1198.27C776.732 1196.88 776.715 1194.65 776.708 1193.31C776.678 1189.31 776.652 1186.13 776.631 1183.4C776.618 1181.99 776.6 1179.81 776.59 1178.57C776.581 1177.33 776.561 1174.89 776.555 1173.15L776.535 1169.99L776.222 1169.49C775.45 1168.26 775.094 1166.49 775.078 1163.84C775.053 1159.6 776.033 1156.7 777.667 1156.19C778.467 1155.93 779.291 1156.15 779.885 1156.78C780.585 1157.54 781.039 1158.81 781.297 1160.77C781.425 1161.79 781.391 1164.95 781.23 1165.92C780.909 1167.88 780.454 1169.11 779.764 1169.91L779.537 1170.17L779.399 1173.08C779.328 1174.68 779.215 1177.03 779.156 1178.3C779.098 1179.56 778.995 1181.74 778.927 1183.14C778.787 1186.19 778.616 1189.76 778.464 1193.07C778.405 1194.4 778.301 1196.62 778.234 1197.99C778.166 1199.36 778.063 1201.58 778.003 1202.91C777.943 1204.24 777.839 1206.49 777.771 1207.91C777.703 1209.32 777.6 1211.5 777.541 1212.76C777.483 1214.01 777.393 1215.89 777.352 1216.94L777.268 1218.83L777.086 1218.83L776.904 1218.82L776.891 1217.1ZM778.364 1168.45C779.504 1165.96 779.621 1161 778.593 1158.43C778.491 1158.16 778.374 1157.94 778.34 1157.94C778.266 1157.94 777.9 1158.75 777.749 1159.25C776.919 1162.04 776.993 1166.21 777.906 1168.44C777.997 1168.65 778.094 1168.82 778.128 1168.83C778.162 1168.83 778.266 1168.66 778.364 1168.45Z" fill="black"/>
</svg>
